<svg xmlns="http://www.w3.org/2000/svg" viewBox="0 0 60.62 60.59"><title>icon-fishing</title><path d="M55.26.59a2.5,2.5,0,0,0-.89.2s-.72.31-1.94.93a2.48,2.48,0,0,0-4.55,1.37,2.41,2.41,0,0,0,.24,1c-1,.63-2.19,1.35-3.43,2.18a2.48,2.48,0,0,0-4.26,1.73,2.55,2.55,0,0,0,.25,1.08c-1,.75-2.09,1.57-3.19,2.45a2.48,2.48,0,1,0-3.82,3.15c-1.36,1.18-2.74,2.39-4.16,3.75a2.49,2.49,0,0,0-4,2A2.54,2.54,0,0,0,26,22c-1.26,1.3-2.52,2.68-3.79,4.12A2.48,2.48,0,1,0,19,29.86c-1.49,1.84-3,3.79-4.44,5.83A6.21,6.21,0,1,0,7,44.8a112.38,112.38,0,0,0-5.9,10,3.73,3.73,0,0,0,6.66,3.34c2-4.07,5.57-9.37,8-13.22a3.69,3.69,0,0,0,.49-3C31.19,19.62,47.94,9.62,53.89,6.56c-2,5.57-1.3,9.22.15,11.94.84,1.59,1.85,2.86,2.58,4.12a7.63,7.63,0,0,1,1.22,4.05A4.44,4.44,0,0,1,56,30.5a21.18,21.18,0,0,1-4.8,2.56,20.8,20.8,0,0,0-5.41,3,7.83,7.83,0,0,0-2.56,4.34,3.72,3.72,0,0,0-.3,7.11v4.17a1.24,1.24,0,0,0,.83,1.17,2.48,2.48,0,1,1-3.31,2.33V54A1.24,1.24,0,1,0,38,54v1.24a5,5,0,0,0,9.93,0,4.81,4.81,0,0,0-2.48-4V47.55a3.71,3.71,0,0,0,.29-6.89A4.9,4.9,0,0,1,47.4,38a19.22,19.22,0,0,1,4.77-2.64,22.59,22.59,0,0,0,5.38-2.91,7.28,7.28,0,0,0,2.77-5.76,10.26,10.26,0,0,0-1.56-5.3c-.85-1.46-1.82-2.69-2.53-4-1.42-2.68-2.14-5.79,1.1-12.63a.88.88,0,0,0,.1-.27,2.51,2.51,0,0,0,.09-2.59A2.52,2.52,0,0,0,55.26.59Z" transform="translate(-0.21 -0.09)" fill="#fff" stroke="#00a7d9"/></svg>