<svg xmlns="http://www.w3.org/2000/svg" viewBox="0 0 61 45.92"><title>icon-microwave</title><path d="M5.29.8A4.29,4.29,0,0,0,1,5.08V39.3a4.28,4.28,0,0,0,4.29,4.28,2.14,2.14,0,0,0,4.28,0H52.43a2.14,2.14,0,0,0,4.28,0A4.28,4.28,0,0,0,61,39.3V5.08A4.29,4.29,0,0,0,56.71.8ZM7.43,7.22H46V37.16H7.43Zm47.14,0a2.14,2.14,0,1,1-2.14,2.14A2.14,2.14,0,0,1,54.57,7.22ZM22.43,13.64a8.12,8.12,0,0,0-5.8,2.76c-1.07,1.07-1.34,1.51-2.77,1.51a2.14,2.14,0,1,0,0,4.28,8.14,8.14,0,0,0,5.8-2.76c1.07-1.07,1.34-1.52,2.77-1.52s1.7.45,2.77,1.52A8.12,8.12,0,0,0,31,22.19a8.12,8.12,0,0,0,5.8-2.76c1.07-1.07,1.34-1.52,2.77-1.52a2.14,2.14,0,1,0,0-4.27,8.12,8.12,0,0,0-5.8,2.76c-1.07,1.07-1.34,1.51-2.77,1.51s-1.7-.44-2.77-1.51A8.12,8.12,0,0,0,22.43,13.64Zm32.14,2.13a2.14,2.14,0,1,1-2.14,2.14A2.14,2.14,0,0,1,54.57,15.77ZM22.43,24.33a8.12,8.12,0,0,0-5.8,2.77c-1.07,1.07-1.34,1.51-2.77,1.51a2.14,2.14,0,1,0,0,4.28,8.14,8.14,0,0,0,5.8-2.77c1.07-1.07,1.34-1.51,2.77-1.51s1.7.44,2.77,1.51A8.12,8.12,0,0,0,31,32.89a8.12,8.12,0,0,0,5.8-2.77c1.07-1.07,1.34-1.51,2.77-1.51a2.14,2.14,0,1,0,0-4.28,8.12,8.12,0,0,0-5.8,2.77c-1.07,1.07-1.34,1.51-2.77,1.51s-1.7-.44-2.77-1.51A8.12,8.12,0,0,0,22.43,24.33Zm32.14,2.14a2.14,2.14,0,0,1,2.14,2.14V35a2.14,2.14,0,1,1-4.28,0V28.61A2.14,2.14,0,0,1,54.57,26.47Z" transform="translate(-0.5 -0.3)" fill="#fff" stroke="#00a7d9"/></svg>