<svg xmlns="http://www.w3.org/2000/svg" viewBox="0 0 60.78 45.94"><title>icon-towels</title><path d="M17,1.5a4.1,4.1,0,0,0-4.12,4.08v27l.57-.29a1.06,1.06,0,0,1,.92,0L18,34.06l3.66-1.82a1.06,1.06,0,0,1,.92,0l3.66,1.82,3.66-1.82a1.06,1.06,0,0,1,.92,0l3.66,1.82,3.66-1.82a1.06,1.06,0,0,1,.92,0l2.64,1.31v-28A4.09,4.09,0,0,1,45.83,1.5Zm-14.42,2a2,2,0,1,0,0,4.08H8.74v-2a7.68,7.68,0,0,1,.3-2H2.56Zm45.33,0a2.06,2.06,0,0,0-1.81,1,2,2,0,0,0,0,2.06,2,2,0,0,0,1.81,1h10.3A2,2,0,0,0,60,4.55a2.09,2.09,0,0,0-1.81-1Zm-2.06,7.79v13l3.09,1.53,3.66-1.82a1.06,1.06,0,0,1,.92,0l.57.29V11.71H47.89A6.08,6.08,0,0,1,45.83,11.33ZM53,28.17,49.38,30a1.06,1.06,0,0,1-.92,0l-2.63-1.31v9.58h8.24V28.68ZM13.89,36.34l-1,.51v9.59H41.71V37.87l-3.09-1.53L35,38.16a1.06,1.06,0,0,1-.92,0l-3.67-1.82-3.65,1.82a1.06,1.06,0,0,1-.92,0l-3.67-1.82-3.65,1.82a1.08,1.08,0,0,1-.93,0Z" transform="translate(0 -1)" fill="#fff" stroke="#00a7d9"/></svg>