<svg xmlns="http://www.w3.org/2000/svg" xmlns:xlink="http://www.w3.org/1999/xlink" viewBox="0 0 88.26 56.92"><defs><mask id="a" x="-7.39" y="-28.39" width="95.94" height="103.87" maskUnits="userSpaceOnUse"><g transform="translate(-0.39 0.03)"><polygon points="-7 45.84 30.84 -28.42 88.94 1.19 51.1 75.45 -7 45.84" fill="#fff" fill-rule="evenodd"/></g></mask></defs><title>icon-drop-sm</title><g mask="url(#a)"><path d="M71.67,4.15,71.3,2.63c-1.54.22-3.1.37-4.63.68a264.7,264.7,0,0,0-30,7.47C29,13.24,21.53,16,14.94,20.7c-5.38,3.84-8.31,9-7.83,15.76a11,11,0,0,0,9.12,10.32c4.45.8,10.12-2,11.7-6.68,3.83-11.3,12.33-18.21,21.71-24.52,6.91-4.64,14.52-7.94,22-11.43m17-2.41c-5.83,2.05-11.45,3.94-17,6a75.19,75.19,0,0,0-29.37,19.2C38,31.48,35.94,37.76,34.59,44.06c-1.13,5.26-3.69,9.55-9.1,11.65A18.28,18.28,0,0,1,1.87,44.83c-3.3-9.55-1-18.07,6.07-25.21A46.81,46.81,0,0,1,24.72,9c20-7.7,40.71-10.1,62-8.69.71.05,1.3,0,2,1.39" transform="translate(-0.39 0.03)" fill="#00a7d9" fill-rule="evenodd"/></g></svg>