<svg xmlns="http://www.w3.org/2000/svg" viewBox="0 0 60.95 60.95"><title>icon-dishwasher</title><path d="M7.49.82A6.71,6.71,0,0,0,.83,7.48V54.11a6.71,6.71,0,0,0,6.66,6.66H54.13a6.71,6.71,0,0,0,6.66-6.66V7.48A6.71,6.71,0,0,0,54.13.82Zm20,6.66a3.33,3.33,0,1,1-3.33,3.33A3.33,3.33,0,0,1,27.48,7.48Zm10,0a3.33,3.33,0,1,1-3.33,3.33A3.33,3.33,0,0,1,37.47,7.48Zm10,0a3.33,3.33,0,1,1-3.33,3.33A3.34,3.34,0,0,1,47.46,7.48ZM7.49,20.8H54.13V54.11H7.49Zm3.34,6.66v5c0,3.17,2.65,7.26,6.66,7.45v4.21H14.16v3.33h10V44.12H20.82V39.91c4-.19,6.66-4.28,6.66-7.45v-5Zm23.31,0v20a6.68,6.68,0,0,0,6.66-6.66V34.12A6.68,6.68,0,0,0,34.14,27.46Zm10,0v20a6.69,6.69,0,0,0,6.67-6.66V34.12A6.69,6.69,0,0,0,44.13,27.46Z" transform="translate(-0.33 -0.32)" fill="#fff" stroke="#00a7d9"/></svg>