<svg xmlns="http://www.w3.org/2000/svg" viewBox="0 0 60.75 72.78"><title>icon-washingmachine</title><path d="M7,.9a6,6,0,0,0-6,6V66.69a6,6,0,0,0,6,6h47.8a6,6,0,0,0,6-6V6.88a6,6,0,0,0-6-6Zm32.87,6a3,3,0,1,1-3,3A3,3,0,0,1,39.84,6.88Zm11.95,0a3,3,0,1,1-3,3A3,3,0,0,1,51.79,6.88Zm-20.92,12A20.94,20.94,0,1,1,10,39.77,20.93,20.93,0,0,1,30.87,18.84Zm-13.67,15a14.94,14.94,0,1,0,27.35,0,11,11,0,0,1-5.28,1.46c-3,0-5.73-1.46-8.4-1.46s-4.31,1.46-7.46,1.46A16.48,16.48,0,0,1,17.2,33.79Z" transform="translate(-0.5 -0.4)" fill="#fff" stroke="#00a7db"/></svg>