<svg xmlns="http://www.w3.org/2000/svg" viewBox="0 0 60.83 55.85"><title>icon-furniture</title><path d="M26.14,1.45a2.29,2.29,0,0,0-2.3,2.28V6.11c-12.25.8-18.5,7.77-20,9.71a2.28,2.28,0,0,0-.11,3.08,2.3,2.3,0,0,0,3.07.39,14.08,14.08,0,0,1,1.63-1,8,8,0,0,1,2.78-.89,8.09,8.09,0,0,1,2.78.89,13.37,13.37,0,0,1,1.62,1,2.31,2.31,0,0,0,2.35.2,28.48,28.48,0,0,1,5.89-1.82v22.6h4.6V17.67a28.48,28.48,0,0,1,5.89,1.82,2.31,2.31,0,0,0,2.31-.18,17.72,17.72,0,0,1,1.69-1,8.56,8.56,0,0,1,2.75-.9,8.45,8.45,0,0,1,2.74.9,16.28,16.28,0,0,1,1.69,1,2.3,2.3,0,0,0,2.94-3.5c-1.52-1.94-7.77-8.9-20-9.7V3.73A2.29,2.29,0,0,0,26.14,1.45Zm32.12,32a2.14,2.14,0,0,0-.83.19L30.27,44.84H3.15a2.29,2.29,0,1,0,0,4.57h4.6V54a2.27,2.27,0,0,0,1.14,2,2.3,2.3,0,0,0,3.46-2V49.41H49.12V54a2.3,2.3,0,1,0,4.6,0V49.41h4.6a2.29,2.29,0,1,0,0-4.57H42.23l17-7a2.29,2.29,0,0,0-.94-4.41Z" transform="translate(-0.32 -0.95)" fill="#fff" stroke="#00a7d9"/></svg>