<svg xmlns="http://www.w3.org/2000/svg" viewBox="0 0 60.51 42.7"><title>icon-wifi</title><path d="M59.9,12.3a43.35,43.35,0,0,0-58.6,0,1.45,1.45,0,0,0,0,2.1l3.2,3.2a1.45,1.45,0,0,0,2.1,0,35.75,35.75,0,0,1,48.1,0,1.66,1.66,0,0,0,2.1,0L60,14.4A1.55,1.55,0,0,0,59.9,12.3ZM30.6,30.6a6,6,0,1,0,6,6A6.08,6.08,0,0,0,30.6,30.6Zm18.8-7.7a28.5,28.5,0,0,0-37.7,0,1.57,1.57,0,0,0-.1,2.2l3.2,3.2a1.55,1.55,0,0,0,2.1.1,21.05,21.05,0,0,1,27.3,0,1.55,1.55,0,0,0,2.1-.1l3.2-3.2a1.48,1.48,0,0,0-.1-2.2Z" transform="translate(-0.35 -0.4)" fill="#fff" stroke="#00a7d9"/></svg>