<svg xmlns="http://www.w3.org/2000/svg" xmlns:xlink="http://www.w3.org/1999/xlink" viewBox="0 0 136.39 83.37"><defs><mask id="a" x="0" y="0" width="136.39" height="83.37" maskUnits="userSpaceOnUse"><g transform="translate(-0.5 0)"><polygon points="0.5 0 136.89 0 136.89 83.37 0.5 83.37 0.5 0" fill="#fff" fill-rule="evenodd"/></g></mask></defs><title>icon-drop-lg</title><g mask="url(#a)"><path d="M61.41,54.55c-8.09-2.32-10.49-7.48-6.94-15.34,2.65-5.88,7.48-8.92,13.79-9.64,7.2-.82,14.15.59,21,2.63,11.09,3.29,21.8,7.89,33.32,9.66,2.58.39,5.37,1.33,7.43-1.4-2.56-2.17-5.9-2.14-8.77-3.33-6.44-2.67-11-7.74-16-12.26C87.15,8.38,65.86,2.92,42,6.78,32.84,8.26,24.36,11.15,17.37,18S5.36,32,4.94,42A32.93,32.93,0,0,0,25.33,73.57c15.59,6.28,33.61-3.23,36.08-19m75.48-19.71c-.95,9.2-6.1,13-14.75,11.49A109.06,109.06,0,0,1,99.58,39.9c-6.83-2.81-14.1-3.72-21.28-5a18.06,18.06,0,0,0-12.48,2c-4.2,2.47-5.33,7-1.73,10.1,6.44,5.48,4.8,11.53,2,17.61C59,80.14,42.28,87.05,26.1,81.43c-13.9-4.83-22-14.76-24.76-29C-1.53,37.54,2.92,24.39,15.12,15.64,36.92,0,60.92-4.84,86.69,5.37c8,3.18,14.29,8.86,20.07,15.12a96,96,0,0,0,10.4,9.87c5.75,4.62,12,7,19.73,4.48" transform="translate(-0.5 0)" fill="#00a7d9" fill-rule="evenodd"/></g></svg>