<svg xmlns="http://www.w3.org/2000/svg" viewBox="0 0 60.57 64.76"><title>icon-coffee</title><path d="M15.87,1.19a10.84,10.84,0,0,0,0,21.68H47.55a10.84,10.84,0,0,0,0-21.68ZM55.6,22.71a13.27,13.27,0,0,1-8.05,2.71H39.36V53.47H31.51a13.93,13.93,0,0,0,1.23-2.15c1.54-3.27,2.81-8.56,2.81-17a1.27,1.27,0,0,0-1.26-1.27H10.09a1.26,1.26,0,0,0-1.15,1.27c0,1,0,2,0,2.91A5.54,5.54,0,0,0,7,36.9,5.74,5.74,0,0,0,7,48.37h3.6a22.18,22.18,0,0,0,1.11,3A13.93,13.93,0,0,0,13,53.47H8.3a3.18,3.18,0,0,0-3.16,3.19v5.1A3.18,3.18,0,0,0,8.3,65H56.47a4.45,4.45,0,0,0,4.43-4.46V54.75a1.34,1.34,0,0,0,0-.2ZM19.08,25.42v3.82h6.33V25.42Zm-7.49,10.2H32.9c-.14,7.25-1.23,12-2.46,14.59A9.28,9.28,0,0,1,28.62,53a3.29,3.29,0,0,1-.75.51H16.62a3.55,3.55,0,0,1-.75-.51,9.28,9.28,0,0,1-1.82-2.75C12.82,47.59,11.74,42.87,11.59,35.62ZM7,39.45a3.21,3.21,0,0,1,2.18.91A44,44,0,0,0,10,45.82H7a3.19,3.19,0,0,1,0-6.37ZM49.5,45.82A2.55,2.55,0,1,1,47,48.37,2.54,2.54,0,0,1,49.5,45.82Z" transform="translate(-0.83 -0.69)" fill="#fff" stroke="#00a7d9"/></svg>