<svg xmlns="http://www.w3.org/2000/svg" viewBox="0 0 60.04 40.36"><title>icon-water</title><path d="M58.63,33.53a11.88,11.88,0,0,1-5.94-2.35,4,4,0,0,0-4.94,0c-3.89,3.12-11,3.12-14.94-.15a3.8,3.8,0,0,0-4.78.18c-3.9,3.09-11,3.08-14.89-.17a3.87,3.87,0,0,0-4.83.2,11.5,11.5,0,0,1-5.92,2.3A1.59,1.59,0,0,0,1,35.15v3.3a1.62,1.62,0,0,0,1.71,1.64,18.44,18.44,0,0,0,8.14-2.65,19.7,19.7,0,0,0,19.69,0,19.68,19.68,0,0,0,19.68,0,19,19,0,0,0,8.11,2.64A1.62,1.62,0,0,0,60,38.44V35.2a1.64,1.64,0,0,0-1.41-1.67Zm0-14.76a11.88,11.88,0,0,1-5.94-2.35,4,4,0,0,0-4.94,0c-3.89,3.12-11,3.12-14.94-.15a3.79,3.79,0,0,0-4.78.18c-3.9,3.09-11,3.08-14.89-.17a3.86,3.86,0,0,0-4.83.2,11.67,11.67,0,0,1-5.92,2.3A1.59,1.59,0,0,0,1,20.39v3.3a1.62,1.62,0,0,0,1.71,1.64,18.45,18.45,0,0,0,8.14-2.66,19.65,19.65,0,0,0,19.69,0,19.63,19.63,0,0,0,19.68,0,19,19,0,0,0,8.11,2.65A1.62,1.62,0,0,0,60,23.68V20.44a1.64,1.64,0,0,0-1.41-1.67ZM58.63,4a11.87,11.87,0,0,1-5.94-2.34,4,4,0,0,0-4.94,0c-3.89,3.11-11,3.11-14.94-.16A3.79,3.79,0,0,0,28,1.69c-3.9,3.08-11,3.07-14.89-.18a3.86,3.86,0,0,0-4.83.21A11.57,11.57,0,0,1,2.39,4,1.59,1.59,0,0,0,1,5.62V8.93a1.62,1.62,0,0,0,1.71,1.64,18.45,18.45,0,0,0,8.14-2.66,19.65,19.65,0,0,0,19.69,0,19.63,19.63,0,0,0,19.68,0,19,19,0,0,0,8.11,2.65A1.62,1.62,0,0,0,60,8.92V5.68A1.66,1.66,0,0,0,58.63,4Z" transform="translate(-0.5 -0.24)" fill="#fff" stroke="#00a7d9"/></svg>