<svg xmlns="http://www.w3.org/2000/svg" viewBox="0 0 182.04 191.02"><title>icon-starfish</title><path d="M69.16,87.62C83.26,86,87.55,78.88,81.31,68.05c1.54,10.06-3.24,15.64-12.15,19.57m13.58,28.07c4.17-9.62.71-16.76-12.42-14.6,9.05.37,11.7,6.43,12.42,14.6m32.78-42.9c-8.6,1.27-14.86-1.38-19.3-9.42.78,11.82,9,15.12,19.3,9.42m8.34,14.94a8.14,8.14,0,0,0-7,7.38c-.11,3.08,2.18,6.62,5,6.91-.76-5.11-2.86-10.1,2-14.29M96.08,119c5.68-5,11.8-8,19.42-4.78-8.28-7.41-15.09-5.82-19.42,4.78M95,83.87c-.81,2.24-2.27,3.93-3.77,6.2,2.62.3,4.34,1.8,6.24,2.9,1.17-2.09,2.22-4,3.31-5.91-2.12-.44-3.69-2-5.78-3.19M23.9,95.09C38,98.33,51,97.6,64.08,95.36c5.69-1,11.46-1.58,16.83-3.9,7.59-3.27,10.21-8.1,8.6-16.12a87.55,87.55,0,0,0-2.26-8.74C84,56,79.71,45.76,77.12,35,75.93,30,75.29,25,74.46,19.89c-2.06,3.06-1.89,6.46-1.73,9.76a246.52,246.52,0,0,1-1.06,36.86A25.54,25.54,0,0,1,51.84,89.14c-4.33,1-8.81,1.36-13.2,2.1C34,92,29.21,92.62,23.9,95.09m47,73.39c-1.65-9.83,0-18.94,3.3-27.89s8.37-16.81,13.38-24.76a33.48,33.48,0,0,0,5.2-14.39c.58-5.17-1.51-7.53-6.73-7.22a48.13,48.13,0,0,0-7.12,1.12c-15.83,3.49-31.75,6-48,4.61-3.48-.3-6.94-.9-10.72-1.41a7.51,7.51,0,0,0,5.44,4.4c5.13,1.41,10.4,2,15.63,2.83,7,1.11,14.11,2,20.71,4.78s9.11,6.93,8.63,13.89c-.32,4.54-1,9.06-1.46,13.59-.86,7.9-2.14,15.78-1.89,23.77.09,2.71.57,5.19,3.66,6.68M159,53.53c-.57.11-1.15.19-1.71.35-8.39,2.3-16.05,6.4-24,9.68-12.12,5-19.86,4.9-29-6.53A209.72,209.72,0,0,1,82.69,24.14c-.88-1.66-1.43-3.75-3.94-4.6C79,21.91,79,24,79.34,26c2.81,17.25,9.73,33.25,15.33,49.63,2.6,7.61,5.2,8.8,12.91,6.44a198.89,198.89,0,0,0,19.08-7.2C138.8,69.73,149.08,62.13,159,53.53m2.64,88.92c-3.85-7.69-10.86-11.89-17.31-16.52-8.91-6.4-18.71-11.37-28.36-16.53A97.57,97.57,0,0,1,98.47,97.54c-.21,8.94-4.47,15.67-8.87,22.35-6.39,9.71-12,19.8-14.59,31.26a34.51,34.51,0,0,0,.39,17.68c3.66-2.38,5.54-5.63,7.61-8.69,5.95-8.78,11.76-17.66,17.8-26.38,4.7-6.79,8.27-7.91,16.12-5.38,2.63.85,5.18,2,7.73,3.07,9.05,3.92,17.88,8.46,27.5,10.91,3,.76,6.2,2,9.5.09m-4.49-12,.61.38-.21-.74-.9-1.33a204.48,204.48,0,0,0-15.11-19.36c-5.62-6.64-7.25-13.68-2.77-21.63,3.55-6.31,9.06-10.82,14.13-15.73,3.89-3.77,8.29-7,11.24-11.7,1.07-1.69,2.24-3.46.9-5.82-.61.44-1.09.75-1.53,1.11a169,169,0,0,1-43.12,26.05,86.56,86.56,0,0,0-10.74,5c-5.64,3.29-6.19,8.06-1.85,12.9,3.54,4,8,6.52,12.81,8.62,12.75,5.57,24.37,13,35.44,21.34l1.1.94M63.09,157.65c.38-9.3,1.93-19.44,3.21-29.61,1.15-9-.75-12.39-9.48-15-9.27-2.79-19-3.21-28.42-5.22-3.63-.77-7.36-1.41-10.07-4.44-3.41-3.8-3.23-7,.79-10.13,3.42-2.66,7.49-3.88,11.63-4.71,4.71-1,9.49-1.72,14.27-2.26,14.69-1.65,22.33-9.66,23.07-24.59.6-12.14.9-24.29.69-36.44a12.5,12.5,0,0,1,1.53-7c2.92-4.82,9.26-5.42,12.77-1a42,42,0,0,1,4.41,7c4.91,9.6,11.24,18.27,17.48,27,.7,1,1.48,1.91,2.27,2.82,7.8,9,14.42,10.23,25.21,5.08,2-.88,6.31-2.82,9.91-4.3,4.52-1.85,14.17-6.59,22-5.61,4,.49,6.3,4.44,5.27,8.73-1.1,4.56-4.22,7.8-7.42,10.92-5,4.88-10.45,9.31-15.09,14.56a42.27,42.27,0,0,0-3.53,4.58c-4.46,6.8-4.12,12.24,1,18.53,5.79,7.11,11.75,14.08,16.81,21.76a30.87,30.87,0,0,1,4.48,9.43c1.55,6.25-.82,9.24-7.18,9.34-8.08.12-15.19-3.27-22.44-6.09-7-2.71-13.55-6.32-20.64-8.73-6-2-7.81-1.53-11.36,3.6-6.92,10-13.67,20.15-20.6,30.15-1.71,2.46-3.65,5-6.42,6.22-6,2.75-12-.36-13.69-6.85-.6-2.27-.51-4.55-.53-7.8m-4,10.66c.06,1.09.06,2.18.2,3.26.64,4.72,1.37,9.61,6.32,11.81s9.18.1,13.18-2.7c.79-.56,1.51-1.2,2.25-1.82a55.32,55.32,0,0,0,9.35-11c4.73-6.85,9.37-13.76,14.13-20.58,4.15-6,9.7-7.77,16.73-5.73,7.45,2.16,14.4,5.49,21.48,8.54,7.77,3.35,15.65,6.32,24.34,5.79,6.45-.39,9.17-3.59,8.39-9.92-.87-7.12-4.72-12.82-9-18.23-4.87-6.15-10-12.08-14.82-18.27-3.07-4-4-12.88-1.1-15.42,2.76-2.39,4.2-5.45,6.23-8.16,5.57-7.43,11.37-14.72,15.94-22.85,1.94-3.47,3.8-7,4.23-11.07.49-4.72-2-7.67-6.7-7.88a41.24,41.24,0,0,0-13.42,2.1c-6.73,2-12.9,5.4-19.74,7.08-5.18,1.27-10.31,2.5-15.68,1.29-6.9-1.55-11.59-6.23-15.94-11.31C99.09,35.8,93.81,27.56,88.31,19.48,85.72,15.68,83.06,12,79.47,9c-5.67-4.66-10.24-3.17-12.2,4a61.75,61.75,0,0,0-2.1,15.36c-.2,11-.51,21.93-2.2,32.8-1.46,9.42-6.32,15.95-15.53,19.06-5.48,1.86-11.1,3.13-16.71,4.46-6.11,1.46-12.16,3.07-17.52,6.53C4.15,97,4.38,102.06,14,107a80,80,0,0,0,19.8,6.7,120.76,120.76,0,0,1,15.94,4.45c8.55,3.14,12.61,8.72,12.47,17.8-.07,4.09-.61,8.17-1,12.25-.67,6.7-2.43,13.29-2,20.1m-3.42-1.81c-.24-8.25,1.78-16.53,2.25-25C58.69,128,55.86,124,42.86,120c-7.83-2.41-16-3.39-23.78-6.15-5-1.78-10-3.67-14.18-7-6.68-5.38-6.53-11.69.43-16.65,7.87-5.6,17.16-7.43,26.29-9.67C37,79.15,42.4,78,47.59,75.94c6.28-2.48,9.84-7,11.18-13.57,2.55-12.38,2-25,2.7-37.5.33-6,.79-12,3-17.75,3-7.81,8.77-9.3,15.25-3.94,5,4.13,8.57,9.44,12.2,14.71,5.83,8.43,11.38,17,18.3,24.69q10.62,11.72,25.48,6.89c7-2.27,13.78-5,20.75-7.34,5.24-1.74,10.56-3.37,16.23-2.92,7,.56,10.23,4.3,9.24,11.31-.94,6.6-4.45,12.17-7.83,17.73-4.71,7.75-10.6,14.67-15.63,22.19-.87,1.3-1.74,2.61-2.52,4-3.73,6.56-3.52,9.94,1.16,15.86,5.62,7.09,11.89,13.65,16.93,21.2a42.49,42.49,0,0,1,6.61,14.36c2,9.09-2.43,14.88-11.76,15.17-8.3.26-15.9-2.49-23.4-5.55-6.36-2.59-12.63-5.39-19-8a34.8,34.8,0,0,0-4.12-1.35c-7.87-2.19-12.28-.39-16.93,6.46-6.7,9.87-12.77,20.21-21,29a35.63,35.63,0,0,1-9.9,7.79c-7.88,3.92-14.29,1.24-17-7.13-1.64-5-1.89-10.17-1.76-15.62" transform="translate(0 0)" fill="#00a7d9" fill-rule="evenodd"/></svg>