<svg xmlns="http://www.w3.org/2000/svg" viewBox="0 0 60.6 49.86"><title>icon-bed</title><path d="M9.75,1.36A4.25,4.25,0,0,0,5.49,5.6V20.46H9.75V16.22a2.13,2.13,0,0,1,2.13-2.13h14.9a2.13,2.13,0,0,1,2.13,2.13v4.24h4.25V16.22a2.13,2.13,0,0,1,2.13-2.13h14.9a2.13,2.13,0,0,1,2.13,2.13v4.24h4.26V5.6a4.25,4.25,0,0,0-4.26-4.24ZM3.33,22.56a2.11,2.11,0,0,0-2.09,2.15V48.06a2.13,2.13,0,0,0,3.2,1.86,2.11,2.11,0,0,0,1-1.86V45.94H56.58v2.12a2.13,2.13,0,1,0,4.25,0V24.71a2.07,2.07,0,0,0-.62-1.53,2.13,2.13,0,0,0-3.63,1.53H5.49a2.07,2.07,0,0,0-.62-1.53A2.11,2.11,0,0,0,3.33,22.56Z" transform="translate(-0.74 -0.86)" fill="#fff" stroke="#00a7d9"/></svg>