<svg xmlns="http://www.w3.org/2000/svg" xmlns:xlink="http://www.w3.org/1999/xlink" viewBox="0 0 44.84 51"><defs><mask id="a" x="0" y="0" width="44.84" height="51" maskUnits="userSpaceOnUse"><g transform="translate(0 0)"><polygon points="0 0 44.84 0 44.84 51 0 51 0 0" fill="#fff" fill-rule="evenodd"/></g></mask></defs><title>icon-anchor</title><g mask="url(#a)"><path d="M22.49,42a3.83,3.83,0,0,1-2.36,2.43,4.71,4.71,0,0,1,2.37,1.92,5.35,5.35,0,0,1,2.28-1.94A4.28,4.28,0,0,1,22.49,42m20.3-12.14a10.9,10.9,0,0,0-3.3,3.77,6.11,6.11,0,0,1,3.84,1.72,9.34,9.34,0,0,0-.54-5.49M13,23.06a1.63,1.63,0,0,0,1.81,0,2.1,2.1,0,0,0-1.81,0m2.57.47a2.84,2.84,0,0,1-2.16.52.94.94,0,0,1-.91-1c0-.6.43-.81.95-.87a3.72,3.72,0,0,1,2.38.49c.66.39-.14.61-.26.88m16.12-.62a2.39,2.39,0,0,0-1.8.05,1.48,1.48,0,0,0,1.8-.05m-3-.14a3.68,3.68,0,0,1,3-.68.76.76,0,0,1,.62.8,1,1,0,0,1-.76,1,2.82,2.82,0,0,1-2.88-1.1m-6.3-11.13a2.27,2.27,0,0,0,.3-1.39c0-.21-.12-.37-.34-.36a.35.35,0,0,0-.36.36,1.62,1.62,0,0,0,.4,1.39m0,1.3a3.58,3.58,0,0,1-1.11-2.4c0-.86.36-1.36,1.07-1.37s1.12.53,1.08,1.36a3.63,3.63,0,0,1-1,2.41m.19,28a5.21,5.21,0,0,1-3.33,3.54,6.07,6.07,0,0,1,3.35,2.7A8.5,8.5,0,0,1,24,45.52a10,10,0,0,1,1.94-1.11A5.24,5.24,0,0,1,22.48,41m16.24-7.12a9.65,9.65,0,0,1,5.1,2.2,16.42,16.42,0,0,0,0-5.51c-.29-1.28-1-1.53-2-.68a15.57,15.57,0,0,0-3.09,4M1,33.33c.64-.9.42-2.07,1-3a10.28,10.28,0,0,1,3.19,3.56,5.75,5.75,0,0,0-3.6,1.64c-.42-.54,0-1.31-.73-1.84a11.06,11.06,0,0,0,.19,2.7A9.77,9.77,0,0,1,6.18,34c-.66-.94-1.23-1.8-1.85-2.62A5.57,5.57,0,0,0,2.78,30c-.46-.27-.95-.35-1.28.13A4.69,4.69,0,0,0,1,33.33m17.09-9.81C16.55,22.21,15,21.16,13,21.12c-1.3,0-2,.94-2,2.45s.81,2.1,2.16,1.94a12.51,12.51,0,0,0,4.95-2m8.5-.07a11.6,11.6,0,0,0,5.3,1.92,1.54,1.54,0,0,0,1.75-1.47,3.87,3.87,0,0,0,0-1.27A1.87,1.87,0,0,0,31.49,21a8.88,8.88,0,0,0-4.88,2.46m-4.33-8.36a12.39,12.39,0,0,0,2.37-4.76,2,2,0,0,0-1.5-2.51,4.44,4.44,0,0,0-1.5,0,1.88,1.88,0,0,0-1.81,2.33,12.13,12.13,0,0,0,2.44,5M20.6,13.93c0,2.43,0,4.64.08,6.87l3.32,0c0-2.24,0-4.46,0-6.85-.46.65-.78,1.13-1.13,1.59-.5.68-.64.67-1.15,0L20.6,13.93m6.85,10.86c-.65-.51-1.34-.73-1.71-1.37a15,15,0,0,1,1.91-1.77L17,21.72a9.38,9.38,0,0,1,2,1.83,16.4,16.4,0,0,1-1.58,1.32l10-.08M25.12,11.54a4.3,4.3,0,0,0,1.32-4.9A4.51,4.51,0,0,0,22,3.71a4.59,4.59,0,0,0-4.11,3.36,4.18,4.18,0,0,0,1.46,4.41c-.33-1.5-1-3.08.58-4.31a4.31,4.31,0,0,1,4.46-.09c1.69,1.18,1.07,2.79.7,4.46m-.28,3.4a7.18,7.18,0,0,0,4.52-8.26c-.77-3.42-3.42-5.5-7.3-5.42a6.92,6.92,0,0,0-7,5.87c-.48,3.33,1.64,6.91,4.62,7.8.2-1.33.15-1.51-.78-2.37a6.09,6.09,0,0,1-1.44-2,5.49,5.49,0,0,1,1.36-6.47,5.43,5.43,0,0,1,6.6-.21,5.6,5.6,0,0,1,0,8.84,1.14,1.14,0,0,0-.55,1.19,8.62,8.62,0,0,1,0,1M40.72,35.18c-.4.08-.45.37-.61.56a13.34,13.34,0,0,1-10.52,5A4,4,0,0,1,25.9,38.5a14.4,14.4,0,0,1-1.55-5.73,66.09,66.09,0,0,1-.3-7.07h-1.3c0,.13,0,.21,0,.29,0,3.41,0,6.81.06,10.22a17.65,17.65,0,0,0,.41,4.4,4.24,4.24,0,0,0,5.17,3.21,23.56,23.56,0,0,0,3.61-1,15.27,15.27,0,0,0,8-6.11,4.82,4.82,0,0,0,.7-1.52m-36.36.28-.19.12c.3.52.55,1.08.9,1.57,3.07,4.29,7.44,6.21,12.5,6.82a3.67,3.67,0,0,0,3-1.17A5.69,5.69,0,0,0,22,38.94c.2-2.34,0-4.69.05-7,0-2,0-4.09-.06-6.15a3,3,0,0,0-1.31,0c0,1,0,1.95,0,2.9a28.86,28.86,0,0,1-.9,8.07c-.91,3.13-2.67,4.43-5.73,4.09a14.84,14.84,0,0,1-8.81-4.29,12,12,0,0,1-.9-1.08m-.85.35c-.54.2-.31.51-.22.76a13.44,13.44,0,0,0,3.08,4.81,20.66,20.66,0,0,0,7.9,4.8,33.53,33.53,0,0,1,7.63,3.61,1,1,0,0,0,1.41,0,22.59,22.59,0,0,1,4-2.24c2.47-1.19,5.14-2,7.52-3.35a14.84,14.84,0,0,0,6.79-7.78c.08-.24.35-.5,0-.79-.37,0-.38.36-.49.57a12.44,12.44,0,0,1-1.52,2.33c-3,3.5-6.91,5.25-11.32,6-2.42.44-4.48,1.35-5.54,3.76,0,.1-.09.2-.3.13-1.12-2.53-3.32-3.49-5.95-3.85a19.46,19.46,0,0,1-6.61-2.24,14.26,14.26,0,0,1-6.38-6.53m16.25-15c0-1.5,0-2.91,0-4.32a.69.69,0,0,0-.52-.75,7.79,7.79,0,0,1-4.88-5.49,7.78,7.78,0,0,1,2.41-8A7.73,7.73,0,0,1,25.7.84a7.61,7.61,0,0,1,4.65,7,7.93,7.93,0,0,1-4.94,7.85c-.32.15-.6.29-.59.73,0,1.43.05,2.86.08,4.42,1.85-.32,3.68.17,5.51-.38,3.38-1,4.62,1.56,4.24,3.69a2.26,2.26,0,0,1-2.19,2,6,6,0,0,1-2.14-.24c-1.78-.5-3.58-.06-5.42-.2.07,3.59,0,7.08,1,10.48.73,2.6,2.22,3.66,5,3.53,3.66-.16,6.47-1.93,8.81-4.76a9.56,9.56,0,0,0-2.38-.34,17.09,17.09,0,0,1,5.35-6.37c.67-.43,1.06-.35,1.26.3a15.78,15.78,0,0,1,.41,9.26,12.19,12.19,0,0,0-2-1.72,14.54,14.54,0,0,1-3.48,6,20.68,20.68,0,0,1-7.49,4.76,34.6,34.6,0,0,0-8,3.94,1.16,1.16,0,0,1-1.51,0,40.41,40.41,0,0,0-8.63-4,18,18,0,0,1-9.08-7,13.46,13.46,0,0,1-1.5-3.29A6.38,6.38,0,0,0,.72,38a1,1,0,0,1-.52-1c-.16-2.3-.46-4.61.26-6.87.16-.48.31-1,.49-1.43.28-.72.56-.82,1.18-.37a15.93,15.93,0,0,1,3.24,3.06,22.63,22.63,0,0,1,2.17,3.27c-.79.25-1.57.06-2.3.46a12.31,12.31,0,0,0,6,4.14,9.88,9.88,0,0,0,3.62.49A4.24,4.24,0,0,0,19,36.58a26.53,26.53,0,0,0,.87-7c0-1.24,0-2.49,0-3.84-1.92.17-3.78-.23-5.61.33a4.88,4.88,0,0,1-.94.18c-1.1.14-2.2.09-2.85-.95a3.3,3.3,0,0,1,.05-3.57,2.49,2.49,0,0,1,2.81-1.24,25.35,25.35,0,0,0,6,.39l.43,0" transform="translate(0 0)" fill="#00a7d9" fill-rule="evenodd"/></g></svg>