<svg xmlns="http://www.w3.org/2000/svg" xmlns:xlink="http://www.w3.org/1999/xlink" viewBox="0 0 29.63 27.52"><defs><mask id="a" x="0" y="0" width="29.63" height="27.52" maskUnits="userSpaceOnUse"><g transform="translate(-0.5 -0.25)"><polygon points="0.5 0.25 30.13 0.25 30.13 27.77 0.5 27.77 0.5 0.25" fill="#fff" fill-rule="evenodd"/></g></mask></defs><title>icon-shell</title><g mask="url(#a)"><path d="M17,18.92l0-.06s-.05,0-.05.05,0,0,0,.06l.06,0m-5.69,5h1.19l0-.08-1.23-.5a.81.81,0,0,0,0,.58M27.11,12.09a9.83,9.83,0,0,0-1.29,2.22c.52-.57,1-1.18,1.46-1.79.14-.18,0-.3-.17-.43M26,11.32c-.15.66-1,1.08-.44,1.94l1-1.54c-.12-.22-.3-.27-.56-.4M24.62,19.7c-.75.86-1.76,1.44-2.25,2.49l2.94-2.09-.69-.4M25.39,9a11.52,11.52,0,0,1-.64,1.48A1,1,0,0,0,25,11.89L26.09,10c-.21-.25-.51-.21-.71-.38a.91.91,0,0,0,0-.66M11.12,25.41c1.62-.25,3.25-.31,4.86-.48-1.38-.13-2.77-.27-4.16-.28-.51,0-.77.14-.7.76m-6-7.72.91.23,1,.28c.09-1.35-.16-1.64-1.46-1.79,0,.48-.65.7-.41,1.28m6.07,8.46c.41.71,1.28,1.18,1.72.89a12.66,12.66,0,0,1,1.8-1.13,12.73,12.73,0,0,0-3.52.24m14.58-5.48-3.19,2.21c.53,0,1-.15,1.52-.19a1.75,1.75,0,0,0,1.67-2m2-10.62.58-.81c.17-.25.33-.52.51-.78.48-.7.41-1-.43-1.36L27.21,9.34a1.7,1.7,0,0,1,.55.71M9,7.82l1.88,2.12.81-.56A16.87,16.87,0,0,0,10,7.08c-.52.08-.23,1-1.07.74m6.45-2.71c.27.93.53,1.83.8,2.74l1.08-.1A15.39,15.39,0,0,0,17,5.44c-.25-.06-.34.21-.58.17a1,1,0,0,0-1-.5m2.28,0c.06.55.11,1,.17,1.54a2.86,2.86,0,0,0,.16,1c.19.33.66.07,1,.19.1,0,.22,0,.37.09V6.16L19,6.29c-.16-.67-.46-1.15-1.3-1.14M4.37,16.85a3.25,3.25,0,0,1-.6-.56,1.26,1.26,0,0,0-1.88.13,1,1,0,0,0,.08,1c.17.27.44.54.76.46.47-.13,1.1-.05,1.31-.72,0-.12.2-.2.33-.32M21,20.35a69.5,69.5,0,0,1,3.27-7.06c.28-.52,0-.78-.28-1.16-.58,1.42-1.13,2.76-1.66,4.11A32.3,32.3,0,0,0,21,20.35M26.6,9a15,15,0,0,0,1.12-2.36.94.94,0,0,0-.32-1c-.5-.47-1-.27-1.14.4-.08.4-.19.79-.27,1.19,0,.13-.13.27.06.39A1.27,1.27,0,0,1,26.6,9M21.8,7.41c-.39-1.07-.91-1.5-1.72-1.35,0,.58,0,1.18,0,1.77,0,.2,0,.36.23.44l1.63.64c.13-.6.26-1.18.41-1.88l-.55.38m-6.26.52a25.58,25.58,0,0,0-.77-2.61,1.54,1.54,0,0,0-.64.53,1.15,1.15,0,0,0-1.24-.18c.44.87.88,1.71,1.31,2.57l.63-.14.71-.17M7.48,14.3A12.51,12.51,0,0,0,5,13.22a1.55,1.55,0,0,0,.51,1.1c-.38.27-.8.45-.75,1l2.3.78a7.11,7.11,0,0,1,.4-1.79M23.1,6.93c-.19.77-.38,1.5-.56,2.23,0,.1,0,.21.1.28A12,12,0,0,1,24,10.53a17.43,17.43,0,0,0,.94-2.21c-.31-.28-.66-.1-1-.16a1.34,1.34,0,0,0-.85-1.23M10.58,6.65,12.27,9l1.32-.58a24.86,24.86,0,0,0-1.26-2.59c-.44.14-.55.49-.72.79-.34-.06-.66-.21-1,0M4.32,14.31a1.61,1.61,0,0,1-.57-1.1.28.28,0,0,0-.33-.28A2.94,2.94,0,0,0,2,13.26a.91.91,0,0,0-.48.93c.06.43.22.92.63,1a1.43,1.43,0,0,0,1.3-.2,6,6,0,0,1,.84-.72M16.46,8.78c.85,3.88,1.7,7.72,2.54,11.55-.56-3.87-1.44-7.69-1.57-11.59a1.75,1.75,0,0,0-1,0M9.23,6.15a3.87,3.87,0,0,0-2-1.37A1.43,1.43,0,0,0,5.25,6a3.16,3.16,0,0,1,2.4.77,1.56,1.56,0,0,0,1.17.33,2.37,2.37,0,0,1,.41-.94M16.6,4.6c.18,0,.27-.14.24-.29a4.63,4.63,0,0,0-1-2.64,1.25,1.25,0,0,0-2,.23,7.2,7.2,0,0,1,1.16,2,.24.24,0,0,0,.31.17,1.18,1.18,0,0,1,1.36.56m-11.39,8a14.47,14.47,0,0,1,2.52,1.19l.89-1.57a14,14,0,0,0-2.4-1.67c-.29.4-.17.79-.22,1.16s-.73.36-.79.89m6.51-7.65A5.37,5.37,0,0,0,10.1,3.37a1.55,1.55,0,0,0-2.34.9A6.49,6.49,0,0,1,9.59,5.61c.09.1.17.17.33.1a2,2,0,0,1,1.22,0,1.44,1.44,0,0,1,.58-.82M24.93,7.44c.36-.07.38-.06.41-.15a5,5,0,0,0,.41-2.82,1,1,0,0,0-1-.81,1.16,1.16,0,0,0-1.2.64A7.93,7.93,0,0,0,23.31,6c1.08,0,1.39.3,1.62,1.42M17.51,4.06c1,0,1.24-.19,1.92,1.16a12.08,12.08,0,0,0-.36-3.51.82.82,0,0,0-.56-.63,2.23,2.23,0,0,0-1.65.67.29.29,0,0,0,0,.27,13.12,13.12,0,0,1,.66,2M10.39,2.59a8.35,8.35,0,0,1,1.69,1.82.35.35,0,0,0,.46.18A1.58,1.58,0,0,1,14,4.87c0-.34.53-.4.33-.83a4.09,4.09,0,0,0-1.73-2,1.65,1.65,0,0,0-2.2.58M6.48,10A23.16,23.16,0,0,1,9,11.75a13.64,13.64,0,0,1,1.53-1.51A14,14,0,0,0,8.4,8.05c-.27.21-.55.37-.64.66A1.73,1.73,0,0,1,6.48,10M5.07,9.94a3,3,0,0,0-2.49,0,1.31,1.31,0,0,0-.37,2.19,1.53,1.53,0,0,0,1.49.21,4.7,4.7,0,0,0,1.16-.87s0-.11,0-.16a1.93,1.93,0,0,1,.21-1.32m13-1.17a96.43,96.43,0,0,0,1.38,11.6,88.44,88.44,0,0,1-.14-11.52c-.48.11-.84-.13-1.24-.08M20.18,5a2.73,2.73,0,0,1,1.28.15,3.54,3.54,0,0,1,1,.88.61.61,0,0,0,.21-.29c.18-.33,0-.68.15-1a2,2,0,0,0-.41-1.95,2.12,2.12,0,0,0-2.1-.15.42.42,0,0,0-.24.49c.06.61.09,1.22.14,1.91M7.93,17.36c-.12,1,0,1.22.79,1.61q.84.42,1.68.87c1.69.92,3.31,2,5,2.83a1.11,1.11,0,0,0,1,.22,56.25,56.25,0,0,0-8.48-5.53m-.53-10a3.12,3.12,0,0,0-3.78-.06A1.66,1.66,0,0,0,2.85,9a4.61,4.61,0,0,1,2.48.4,2.66,2.66,0,0,0,1.1-.55,2.62,2.62,0,0,1,1-1.52M20.1,20.82c.09,0,.15,0,.15-.06a63.1,63.1,0,0,1,3.19-9c.08-.18.14-.34,0-.51a5.05,5.05,0,0,0-1.12-1,78.19,78.19,0,0,0-2.2,10.49M16.55,21.9a50.14,50.14,0,0,0-8.27-7.11c-.13.52-.22.93-.34,1.34s0,.43.28.56A39.08,39.08,0,0,1,12,18.87c1.52,1,3,2.06,4.57,3M20,9.17a116.34,116.34,0,0,0-.1,11.66c.18-1.33.32-2.66.52-4a54.74,54.74,0,0,1,1-5.53c.41-1.62.4-1.62-1.21-2.14H20M9.61,12.31A78.12,78.12,0,0,1,16.91,20C15,17,13.25,13.83,11.05,11a14.86,14.86,0,0,0-1.44,1.34M16.66,24a12.25,12.25,0,0,1-2.57-1.26,46.18,46.18,0,0,0-6.83-3.48,9.22,9.22,0,0,0-3-.71,1.23,1.23,0,0,0-1.43,1.16c0,.37.06.56.5.62a30.7,30.7,0,0,1,8.39,2.32A16,16,0,0,0,16.18,24c.43.06.78.13.95.59a.4.4,0,0,0,.41.23,4,4,0,0,0,2.72-1,1.27,1.27,0,0,0,0-2,2.28,2.28,0,0,0-2.87-.28c-.84.49-1,1.08-.68,2.26,0,0,0,.07,0,.14m.22-2.6c.05,0,.08.15.16.06s0-.13-.07-.16a68.89,68.89,0,0,0-6.79-7.69,3.2,3.2,0,0,0-.86-.72,5.25,5.25,0,0,0-.79,1.4c1,.69,1.9,1.38,2.8,2.11,1.93,1.58,3.71,3.33,5.55,5m.78-2.25a.91.91,0,0,0,.26.48.71.71,0,0,0-.17-.57c0-.12-.06-.25-.11-.37Q16.32,15.23,15,11.8c-.32-.84-.69-1.66-1-2.51a4.63,4.63,0,0,0-1.18.58c1.79,3,3.36,6.12,4.89,9.25m-1.28-1.07a1.16,1.16,0,0,0,.41.62c-.12-.22-.15-.5-.38-.66-1.19-2.4-2.49-4.76-3.81-7.1-.13-.24-.28-.47-.45-.75-.27.19-.55.28-.72.56,1,1.34,2,2.68,2.84,4.07.69,1.09,1.4,2.18,2.11,3.26m5.08,2.61A67.73,67.73,0,0,1,24.8,14.5c.16-.24.06-.46-.1-.72-.36.67-.7,1.3-1,2a46,46,0,0,0-2.28,4.88c-.08.06-.16.13,0,.24l.08-.19M28,11.56a4,4,0,0,0,1.43-2.19c-.84.3-1.13,1.08-1.61,1.66l.19.54s-.11,0,0,.09l0-.1m-9.59,7.71v.34a.23.23,0,0,0,0-.33,3.16,3.16,0,0,0-.34-1.12c0-.13,0-.26,0-.38-.43-1.56-.88-3.1-1.27-4.67-.35-1.4-.63-2.81-.94-4.22a2.41,2.41,0,0,0-1.21.24,87.11,87.11,0,0,1,3.18,8.4,1.14,1.14,0,0,0,.27.65,1.73,1.73,0,0,0,.37,1.09M2.18,18.69c-1.42-.75-1.63-1.5-.82-2.86-1.1-1.42-1.13-2-.17-3.24C.56,11.15.74,10.39,2,9.37a.3.3,0,0,0,.15-.32,2.54,2.54,0,0,1,1.6-2.62.84.84,0,0,0,.48-.61A2.56,2.56,0,0,1,6.54,4a.52.52,0,0,0,.51-.33A2.19,2.19,0,0,1,9.41,2.19.5.5,0,0,0,9.87,2a2.85,2.85,0,0,1,3.06-.93c.27.09.41-.08.59-.21a2.25,2.25,0,0,1,3,.05A3,3,0,0,1,18.46.27c.83.11,1.14.75,1.42,1.45a3.13,3.13,0,0,1,2.17-.13,2.55,2.55,0,0,1,1.5,1.5c.17-.08.31-.17.46-.23a1.63,1.63,0,0,1,2.3,1c.12.32.23.49.64.51,1.06.06,1.59.79,1.6,2.07,1.26.64,1.5,1.15,1,2.2.65.6.7,1,.2,1.78a15,15,0,0,1-1.74,2.24,33.51,33.51,0,0,0-3.59,5.24.66.66,0,0,0,.12.93,4.31,4.31,0,0,0,1,.69,1.35,1.35,0,0,1,.71.68c.5,1.12-.46,3-1.67,3.1a16.37,16.37,0,0,0-4.38,1.22c-1.61.59-3.2,1.21-4.8,1.82a6,6,0,0,0-2,1.12,1.34,1.34,0,0,1-1.41.25,2.12,2.12,0,0,1-1.56-2.79,3.5,3.5,0,0,0,.06-1.16,1.32,1.32,0,0,0-.84-1.2,20.07,20.07,0,0,0-4.5-1.26A16.36,16.36,0,0,0,2.69,21c-.38,0-.53-.32-.6-.64a2.39,2.39,0,0,1,.09-1.62" transform="translate(-0.5 -0.25)" fill="#00a7d9" fill-rule="evenodd"/></g></svg>