<svg xmlns="http://www.w3.org/2000/svg" viewBox="0 0 60.96 53.47"><title>icon-bath</title><path d="M57.65,26.83H9.87V10a3.74,3.74,0,0,1,6.91-2,8,8,0,0,0,.8,9.72,1.41,1.41,0,0,0,.06,1.93L19,20.93a1.41,1.41,0,0,0,2,0L32.08,9.8a1.41,1.41,0,0,0,0-2L30.76,6.49a1.41,1.41,0,0,0-1.93-.06,7.93,7.93,0,0,0-7.51-1.8A9.37,9.37,0,0,0,4.25,10V26.83H3.31A2.81,2.81,0,0,0,.5,29.64v1.87a2.81,2.81,0,0,0,2.81,2.81h.94v3.75A11.22,11.22,0,0,0,8,46.45v3.8a2.81,2.81,0,0,0,2.81,2.81h1.87a2.81,2.81,0,0,0,2.81-2.81v-.94h30v.94a2.81,2.81,0,0,0,2.81,2.81h1.88A2.81,2.81,0,0,0,53,50.25v-3.8a11.22,11.22,0,0,0,3.75-8.38V34.32h.93a2.81,2.81,0,0,0,2.81-2.81V29.64A2.81,2.81,0,0,0,57.65,26.83Z" transform="translate(0 -0.09)" fill="#fff" stroke="#00a7d9"/></svg>