<svg xmlns="http://www.w3.org/2000/svg" viewBox="0 0 60.68 50.99"><title>icon-kitchen</title><path d="M30.88.82A6.09,6.09,0,0,0,26.15,3.2H13.85A6.07,6.07,0,0,0,9.13,5.58H7.47A2.1,2.1,0,0,0,5.6,6.76a2.61,2.61,0,0,0,0,2.4,2.1,2.1,0,0,0,1.87,1.18H54.29a2.1,2.1,0,0,0,1.87-1.18,2.61,2.61,0,0,0,0-2.4,2.1,2.1,0,0,0-1.87-1.18H52.63A6.07,6.07,0,0,0,47.91,3.2H35.61A6.09,6.09,0,0,0,30.88.82ZM7.47,15.1v4.76H3.21a2.22,2.22,0,0,0-2.13,2,2.43,2.43,0,0,0,1.5,2.64L7.47,26.2V46.05a4.53,4.53,0,0,0,4.26,4.76H50a4.53,4.53,0,0,0,4.26-4.76V26.2l4.89-1.68a2.42,2.42,0,0,0,1.51-2.78,2.16,2.16,0,0,0-2.37-1.88h-4V15.1Z" transform="translate(-0.56 -0.32)" fill="#fff" stroke="#00a7d9"/></svg>