<svg xmlns="http://www.w3.org/2000/svg" viewBox="0 0 60.75 68.89"><title>icon-gaselec</title><path d="M25.44.8a2.71,2.71,0,0,0-2.71,2.71c0,11.8-13.58,19-13.58,35.31,0,13.58,6.72,19,21.72,19-6,0-10.86-7.58-10.86-13.58a28,28,0,0,1,2.72-10.86s2.71,5.43,5.43,5.43c5.43,0,5.43-16.3,5.43-16.3S41.74,28,41.74,44.25c0,6-4.87,13.58-10.87,13.58,15,0,21.73-5.43,21.73-19C52.6,17.93,29,2.56,27.14,1.39A2.74,2.74,0,0,0,25.44.8ZM9.15,60.55A8.14,8.14,0,0,0,1,68.69H60.75a8.14,8.14,0,0,0-8.15-8.14H49.88a2.72,2.72,0,0,1-5.43,0H39a2.72,2.72,0,0,1-5.43,0H28.16a2.72,2.72,0,0,1-5.43,0H17.29a2.72,2.72,0,0,1-5.43,0Z" transform="translate(-0.5 -0.3)" fill="#fff" stroke="#00a7d9"/></svg>