<svg xmlns="http://www.w3.org/2000/svg" viewBox="0 0 60.48 68.52"><title>icon-weber</title><path d="M30.42,1a2.69,2.69,0,0,0-2.66,2.73v8.1a2.7,2.7,0,1,0,5.4,0V3.73a2.7,2.7,0,0,0-.79-1.95A2.73,2.73,0,0,0,30.42,1ZM19.62,6.4A2.69,2.69,0,0,0,17,9.13v2.7a2.7,2.7,0,1,0,5.4,0V9.13a2.74,2.74,0,0,0-.79-2A2.69,2.69,0,0,0,19.62,6.4Zm21.6,0a2.69,2.69,0,0,0-2.66,2.73v2.7a2.7,2.7,0,1,0,5.4,0V9.13A2.68,2.68,0,0,0,41.22,6.4ZM3.46,19.93a2.7,2.7,0,1,0,0,5.4H4a27,27,0,0,0,13.09,18l-.06.21L14.44,54a3.07,3.07,0,0,0-.21.83L11.64,65.16a2.7,2.7,0,0,0,5.24,1.31l2.19-8.75H42.31l.47,1.64A5.4,5.4,0,1,0,48,57.88l-4.12-14.4s0-.08,0-.12a27,27,0,0,0,13.1-18h.54A2.7,2.7,0,0,0,59.83,24a2.65,2.65,0,0,0,0-2.72,2.68,2.68,0,0,0-2.37-1.34ZM38.84,45.57l1.93,6.75H20.42l1.69-6.74a26.68,26.68,0,0,0,16.73,0Z" transform="translate(-0.22 -0.5)" fill="#fff" stroke="#00a7d9"/></svg>