
<svg width="94px" height="76px" viewBox="0 0 94 76" version="1.1" xmlns="http://www.w3.org/2000/svg" xmlns:xlink="http://www.w3.org/1999/xlink">
    <defs>
        <path d="M8.52901648,38.8173667 L46.4653804,15.5044832 L84.370092,38.8173667 L77.4641515,38.8173667 L46.4653804,21.6947653 L15.4349571,38.8173667 L8.52901648,38.8173667 Z M46.4653804,24.7062422 L71.7871626,38.6939723 L71.7871626,62.0068557 L67.1832022,62.0068557 L67.1832022,41.0252606 L48.7673606,41.0252606 L48.7673606,62.0068557 L44.2243943,62.0068557 L44.1634002,41.0252606 L25.7475586,41.0252606 L25.7475586,62.0068557 L21.1435982,62.0068557 L21.1435982,38.6939723 L46.4653804,24.7062422 Z M21.1435982,64.3381441 L71.7871626,64.3381441 L76.391123,66.6694324 L16.5396378,66.6694324 L21.1435982,64.3381441 Z M14.2376576,69.0007208 L78.6931031,69.0007208 L83.2970635,71.3320091 L9.63369721,71.3320091 L14.2376576,69.0007208 Z M7.33171701,73.6632974 L85.5990437,73.6632974 L90.2030041,75.9945858 L2.72775661,75.9945858 L7.33171701,73.6632974 Z M2.72775661,73.6632974 L2.72775661,66.6694324 L7.33171701,66.6694324 L7.33171701,71.3320091 L2.72775661,73.6632974 Z M90.2030041,73.6632974 L85.5990437,71.3320091 L85.5990437,66.7664177 L90.2030041,66.7664177 L90.2030041,73.6632974 Z M86.385097,64.3497838 C88.6229336,59.052168 89.8617792,53.2186122 89.8617792,47.0920245 C89.8617792,22.8390755 70.4480494,3.17817572 46.5,3.17817572 C22.5519506,3.17817572 3.1382208,22.8390755 3.1382208,47.0920245 C3.1382208,53.215819 4.37593704,59.0468489 6.61184287,64.3425378 C5.30495524,64.3517458 4.32796899,64.3517458 3.22238264,64.3517458 C1.1425054,59.007246 5.68434189e-14,53.1847572 5.68434189e-14,47.0920245 C5.68434189e-14,21.0838175 20.8187591,1.27897692e-13 46.5,1.27897692e-13 C72.1812409,1.27897692e-13 93,21.0838175 93,47.0920245 C93,53.1816078 91.8586755,59.0012265 89.780842,64.3434574 L86.385097,64.3497838 Z" id="path-1"></path>
    </defs>
    <g id="Symbols" stroke="none" stroke-width="1" fill="none" fill-rule="evenodd" opacity="0.3">
        <g id="Header" transform="translate(-477.000000, -35.000000)">
            <g id="Logo-V2">
                <g transform="translate(477.760666, 35.000000)">
                    <mask id="mask-2" fill="white">
                        <use xlink:href="#path-1"></use>
                    </mask>
                    <use id="Combined-Shape" fill="#000000" fill-rule="evenodd" xlink:href="#path-1"></use>
                    <g id="Colour/Dark" mask="url(#mask-2)" fill="#005D78" fill-rule="evenodd">
                        <g transform="translate(0.000000, -0.725582)" id="Rectangle">
                            <rect x="0" y="0" width="93" height="77"></rect>
                        </g>
                    </g>
                </g>
            </g>
        </g>
    </g>
</svg>