<svg xmlns="http://www.w3.org/2000/svg" viewBox="0 0 640 250"><title>park-map.inline</title><rect width="640" height="250" fill="#f7f7f7"/><rect x="401" y="65" width="28" height="13" transform="translate(52.8 -143.33) rotate(20.9)" fill="#034052"/><path d="M593.58,141.69h-.43l-.87-2.37a1.23,1.23,0,0,0-.5-.69,2,2,0,0,0-.94-.18h-2.21v3.24h-.41v-7.12h2.65a2.61,2.61,0,0,1,1.7.5,1.73,1.73,0,0,1,.6,1.42,1.8,1.8,0,0,1-.36,1.15,1.91,1.91,0,0,1-1,.64,1,1,0,0,1,.53.27,1.47,1.47,0,0,1,.36.62Zm-2.7-3.64a2,2,0,0,0,1.38-.4,1.44,1.44,0,0,0,.46-1.17c0-1-.61-1.52-1.84-1.52h-2.24v3.09Z" fill="#555"/><path d="M595.1,139.08v.09a2.4,2.4,0,0,0,.5,1.62,1.79,1.79,0,0,0,1.41.56,2.54,2.54,0,0,0,.88-.15,3,3,0,0,0,.81-.5l.2.36a2.12,2.12,0,0,1-.82.51,2.91,2.91,0,0,1-1.05.19,2.27,2.27,0,0,1-1.75-.69,2.67,2.67,0,0,1-.65-1.9,3.12,3.12,0,0,1,.29-1.36,2.13,2.13,0,0,1,.82-.91,2.21,2.21,0,0,1,1.2-.33,1.9,1.9,0,0,1,1.51.63A2.63,2.63,0,0,1,599,139v.12Zm.63-1.67a2.08,2.08,0,0,0-.6,1.26h3.44a2,2,0,0,0-.48-1.27,1.49,1.49,0,0,0-1.15-.45A1.64,1.64,0,0,0,595.73,137.41Z" fill="#555"/><path d="M601.13,141.44a2.07,2.07,0,0,1-.8-.9,3.06,3.06,0,0,1-.29-1.36,3.09,3.09,0,0,1,.29-1.36,2.06,2.06,0,0,1,.8-.92,2.22,2.22,0,0,1,1.21-.33,2.55,2.55,0,0,1,.95.18,2.22,2.22,0,0,1,.75.49l-.2.36a3.36,3.36,0,0,0-.76-.48,1.85,1.85,0,0,0-.74-.15,1.66,1.66,0,0,0-1.35.6,2.45,2.45,0,0,0-.5,1.62,2.35,2.35,0,0,0,.49,1.59,1.7,1.7,0,0,0,1.35.57,2.12,2.12,0,0,0,.75-.14,3.36,3.36,0,0,0,.76-.48l.2.35a2.14,2.14,0,0,1-.77.5,2.57,2.57,0,0,1-.94.18A2.15,2.15,0,0,1,601.13,141.44Z" fill="#555"/><path d="M605.38,139.08v.09a2.4,2.4,0,0,0,.5,1.62,1.79,1.79,0,0,0,1.41.56,2.54,2.54,0,0,0,.88-.15,3,3,0,0,0,.81-.5l.2.36a2.12,2.12,0,0,1-.82.51,2.91,2.91,0,0,1-1.05.19,2.27,2.27,0,0,1-1.75-.69,2.67,2.67,0,0,1-.65-1.9,3.12,3.12,0,0,1,.29-1.36,2.13,2.13,0,0,1,.82-.91,2.21,2.21,0,0,1,1.2-.33,1.9,1.9,0,0,1,1.51.63,2.63,2.63,0,0,1,.54,1.76v.12Zm.63-1.67a2.08,2.08,0,0,0-.6,1.26h3.44a2,2,0,0,0-.48-1.27,1.49,1.49,0,0,0-1.15-.45A1.64,1.64,0,0,0,606,137.41Z" fill="#555"/><path d="M614,136.9a2.14,2.14,0,0,1,.79.91,3.13,3.13,0,0,1,.28,1.37,3,3,0,0,1-.28,1.36,2,2,0,0,1-.78.9,2.1,2.1,0,0,1-1.17.32,2,2,0,0,1-1.1-.28,1.72,1.72,0,0,1-.67-.84v3.21h-.41v-5.78a11.17,11.17,0,0,0-.08-1.38h.4l.08,1a1.66,1.66,0,0,1,.67-.84,2,2,0,0,1,1.11-.3A2,2,0,0,1,614,136.9Zm.15,3.88a2.46,2.46,0,0,0,.46-1.6,2.54,2.54,0,0,0-.46-1.62,1.61,1.61,0,0,0-1.3-.58,1.57,1.57,0,0,0-1.31.57,2.45,2.45,0,0,0-.46,1.61,2.5,2.5,0,0,0,.46,1.62,1.55,1.55,0,0,0,1.3.57A1.61,1.61,0,0,0,614.15,140.78Z" fill="#555"/><path d="M617.12,137.05v3.19a1.24,1.24,0,0,0,.24.88.94.94,0,0,0,.69.23,1.69,1.69,0,0,0,.56-.09v.41a2.06,2.06,0,0,1-.6.08,1.37,1.37,0,0,1-1-.33,1.4,1.4,0,0,1-.35-1v-3.33h-1v-.36h1v-1.36l.42-.18v1.54h1.52v.36Z" fill="#555"/><path d="M619.63,134.69h.65v.64h-.65Zm.11,7v-5h.41v5Z" fill="#555"/><path d="M622.64,141.44a2,2,0,0,1-.78-.91,3.1,3.1,0,0,1-.28-1.37,3.06,3.06,0,0,1,.28-1.36,2.11,2.11,0,0,1,.78-.91,2.18,2.18,0,0,1,1.17-.32,2.06,2.06,0,0,1,1.94,1.23,3.06,3.06,0,0,1,.28,1.36,3.1,3.1,0,0,1-.28,1.37,2,2,0,0,1-.78.91,2,2,0,0,1-1.16.32A2.1,2.1,0,0,1,622.64,141.44Zm2.48-.66a2.56,2.56,0,0,0,.46-1.62,2.5,2.5,0,0,0-.47-1.6,1.76,1.76,0,0,0-2.61,0,2.48,2.48,0,0,0-.47,1.6,2.51,2.51,0,0,0,.46,1.63,1.81,1.81,0,0,0,2.63,0Z" fill="#555"/><path d="M631.42,138.47v3.22H631v-3.18a1.8,1.8,0,0,0-.32-1.17,1.36,1.36,0,0,0-1-.37,1.75,1.75,0,0,0-1.29.49,1.78,1.78,0,0,0-.49,1.32v2.91h-.41v-3.62a11.17,11.17,0,0,0-.08-1.38h.4l.07.95a1.6,1.6,0,0,1,.68-.79,2,2,0,0,1,1.08-.28C630.81,136.57,631.42,137.21,631.42,138.47Z" fill="#555"/><path d="M593.79,153.48l-.28.29a5.25,5.25,0,0,1-1.33-1,2.75,2.75,0,0,1-.94.77,2.84,2.84,0,0,1-1.2.26,2.59,2.59,0,0,1-1.11-.22,1.76,1.76,0,0,1-.76-.63,1.65,1.65,0,0,1-.27-.94,1.82,1.82,0,0,1,.37-1.12,4.89,4.89,0,0,1,1.25-1.09l.13-.09a5.33,5.33,0,0,1-.7-1,1.51,1.51,0,0,1-.19-.74,1.34,1.34,0,0,1,.43-1,1.61,1.61,0,0,1,1.15-.4,1.49,1.49,0,0,1,1,.36,1.27,1.27,0,0,1,.39,1,1.42,1.42,0,0,1-.13.63,2.34,2.34,0,0,1-.45.58,8.85,8.85,0,0,1-.94.72l1.9,2.3a5.19,5.19,0,0,0,.54-2.45h.43a5.55,5.55,0,0,1-.7,2.77l0,0A5.05,5.05,0,0,0,593.79,153.48Zm-1.86-1.06-2-2.43,0,0a.09.09,0,0,1-.06,0,5,5,0,0,0-1.16,1,1.5,1.5,0,0,0-.33.94,1.24,1.24,0,0,0,.47,1,2,2,0,0,0,1.27.37A2.22,2.22,0,0,0,591.93,152.42Zm-2.55-3.83a5.78,5.78,0,0,0,.62.86,5.83,5.83,0,0,0,1-.86,1.07,1.07,0,0,0,.28-.72.93.93,0,0,0-.27-.7,1,1,0,0,0-.72-.27,1.13,1.13,0,0,0-.81.29,1,1,0,0,0-.31.76A1.35,1.35,0,0,0,589.38,148.59Z" fill="#555"/><path d="M598,153.54a2.93,2.93,0,0,1-1.13-.73l.21-.35a3.33,3.33,0,0,0,1.07.7,3.88,3.88,0,0,0,1.31.2,2.39,2.39,0,0,0,1.48-.4,1.35,1.35,0,0,0,.52-1.14.93.93,0,0,0-.26-.68,1.62,1.62,0,0,0-.64-.4,10.34,10.34,0,0,0-1-.29,10.16,10.16,0,0,1-1.32-.37,2.14,2.14,0,0,1-.85-.56,1.46,1.46,0,0,1-.37-1.06,1.78,1.78,0,0,1,.3-1,1.92,1.92,0,0,1,.86-.69,3.08,3.08,0,0,1,1.3-.25,3.14,3.14,0,0,1,2.39,1l-.21.35a3.46,3.46,0,0,0-1-.68,2.88,2.88,0,0,0-1.15-.22,2.34,2.34,0,0,0-1.49.42,1.37,1.37,0,0,0-.54,1.16,1.06,1.06,0,0,0,.47,1,4.12,4.12,0,0,0,1.3.52l.45.11a11.55,11.55,0,0,1,1.18.34,1.93,1.93,0,0,1,.77.51,1.37,1.37,0,0,1,.31.94,1.71,1.71,0,0,1-.3,1,2,2,0,0,1-.85.68,3.23,3.23,0,0,1-1.29.24A4,4,0,0,1,598,153.54Z" fill="#555"/><path d="M607.29,148.69v5h-.42v-1a1.71,1.71,0,0,1-.67.8,2.35,2.35,0,0,1-2.26,0,2,2,0,0,1-.78-.9,3.49,3.49,0,0,1,0-2.74,2.14,2.14,0,0,1,.79-.91,2,2,0,0,1,1.16-.33,2.12,2.12,0,0,1,1.09.27,1.68,1.68,0,0,1,.67.79v-.94Zm-.88,4.09a2.52,2.52,0,0,0,.46-1.62,2.45,2.45,0,0,0-.46-1.61,1.58,1.58,0,0,0-1.3-.57,1.61,1.61,0,0,0-1.31.58,2.54,2.54,0,0,0-.47,1.62,2.41,2.41,0,0,0,.48,1.6,1.6,1.6,0,0,0,1.31.57A1.57,1.57,0,0,0,606.41,152.78Z" fill="#555"/><path d="M609.05,153.69v-7.36h.41v7.36Z" fill="#555"/><path d="M611.36,151.08v.09a2.4,2.4,0,0,0,.5,1.62,1.79,1.79,0,0,0,1.41.56,2.54,2.54,0,0,0,.88-.15,3,3,0,0,0,.81-.5l.2.36a2.12,2.12,0,0,1-.82.51,2.91,2.91,0,0,1-1.05.19,2.27,2.27,0,0,1-1.75-.69,2.67,2.67,0,0,1-.65-1.9,3.12,3.12,0,0,1,.29-1.36,2.13,2.13,0,0,1,.82-.91,2.21,2.21,0,0,1,1.2-.33,1.9,1.9,0,0,1,1.51.63,2.63,2.63,0,0,1,.54,1.76v.12Zm.63-1.67a2.08,2.08,0,0,0-.6,1.26h3.44a2,2,0,0,0-.48-1.27,1.49,1.49,0,0,0-1.15-.45A1.64,1.64,0,0,0,612,149.41Z" fill="#555"/><path d="M616.34,153.08l.19-.35a2.5,2.5,0,0,0,.79.48,2.73,2.73,0,0,0,.91.13,1.88,1.88,0,0,0,1-.23.79.79,0,0,0,.35-.69.75.75,0,0,0-.23-.57,1.65,1.65,0,0,0-.74-.35l-.85-.2a1.75,1.75,0,0,1-.92-.49,1.15,1.15,0,0,1-.35-.82,1.25,1.25,0,0,1,.49-1,2,2,0,0,1,1.3-.39,2.63,2.63,0,0,1,1,.18,1.74,1.74,0,0,1,.71.49l-.2.36a2.64,2.64,0,0,0-.7-.46,1.86,1.86,0,0,0-.79-.16,1.67,1.67,0,0,0-1,.25.91.91,0,0,0-.13,1.31,1.28,1.28,0,0,0,.68.34l.86.21a2,2,0,0,1,1,.48,1.12,1.12,0,0,1,.33.82,1.19,1.19,0,0,1-.5,1,2.17,2.17,0,0,1-1.36.38A2.48,2.48,0,0,1,616.34,153.08Z" fill="#555"/><rect x="325" y="101" width="28" height="13" transform="translate(78.94 -135.08) rotate(25.41)" fill="#034052"/><path d="M342,106.6a4.75,4.75,0,0,0-.61-.25,2.64,2.64,0,0,0-3,1.12h0a2,2,0,0,1,1.74,0,1.93,1.93,0,0,1,.87,2.74,2.17,2.17,0,0,1-2.93,1.14c-1.26-.6-1.62-2-.89-3.49a4.06,4.06,0,0,1,2.25-2.17,3.53,3.53,0,0,1,2.29,0,5.14,5.14,0,0,1,.6.23Zm-1.84,3.28a1.31,1.31,0,0,0-.57-1.92,1.45,1.45,0,0,0-1.48.18.89.89,0,0,0-.25.31c-.44,1-.34,1.9.49,2.29A1.35,1.35,0,0,0,340.12,109.88Z" fill="#fff"/><rect x="405" y="46" width="28" height="13" transform="matrix(0.93, 0.38, -0.38, 0.93, 50.39, -153.53)" fill="#034052"/><path d="M421.06,50.1h0l-1.28.14.09-.68,1.61-.17.69.28-2.44,6-.79-.32Z" fill="#fff"/><path d="M412.13,73.79l.2-.5.88-.38c2.11-.88,3.11-1.4,3.47-2.31a1.16,1.16,0,0,0-.75-1.65,2.27,2.27,0,0,0-1.49,0l0-.68a2.94,2.94,0,0,1,2,0,1.84,1.84,0,0,1,1.18,2.48c-.43,1.12-1.58,1.71-3.33,2.46l-.66.26v0l2.73,1-.26.68Z" fill="#fff"/><rect x="400" y="84" width="28" height="13" transform="matrix(0.94, 0.33, -0.33, 0.94, 52.54, -130.71)" fill="#034052"/><path d="M410.67,91.09a3,3,0,0,0,1.22.86,1.27,1.27,0,0,0,1.8-.71c.29-.86-.35-1.5-1.16-1.78l-.46-.16.22-.62.46.16c.61.21,1.48.16,1.73-.56.17-.5,0-1-.76-1.3a2.34,2.34,0,0,0-1.36,0v-.68a3,3,0,0,1,1.77.08,1.58,1.58,0,0,1-.39,3.13v0a1.69,1.69,0,0,1,.83,2c-.34,1-1.41,1.57-2.88,1.06a3.22,3.22,0,0,1-1.45-1Z" fill="#fff"/><rect x="386" y="101" width="28" height="13" transform="translate(122.09 -199.62) rotate(32.82)" fill="#034052"/><path d="M398.32,110l1-1.49-2.54-1.63.32-.49,4.68-1.91.8.51-2.19,3.39.77.5-.38.58-.76-.5-1,1.49Zm1.34-2.07,1.17-1.82c.18-.28.38-.56.58-.84l0,0c-.37.22-.66.36-1,.52l-2.53,1v0Z" fill="#fff"/><rect x="355" y="101" width="28" height="13" transform="matrix(0.79, 0.62, -0.62, 0.79, 145.08, -204.87)" fill="#034052"/><path d="M371.57,105.85l-1.95-1.53-1.22,1.16a3,3,0,0,1,1.32,1.43,1.86,1.86,0,0,1-.3,1.89,2.25,2.25,0,0,1-3.27.25,3.23,3.23,0,0,1-1-1.31l.59-.39a3,3,0,0,0,.87,1.14,1.44,1.44,0,0,0,2.08-.16c.51-.67.44-1.49-.58-2.29a6.91,6.91,0,0,0-.75-.5l2.25-2.19,2.45,1.92Z" fill="#fff"/><rect x="293" y="92" width="28" height="13" transform="translate(249.16 -218.68) rotate(61.88)" fill="#034052"/><path d="M311.51,99.29l-.52.28-6.55.29-.43-.8,6.4-.23h0L308.93,96l.64-.34Z" fill="#fff"/><rect x="269" y="87" width="28" height="13" transform="translate(230.35 -199.86) rotate(61.54)" fill="#034052"/><path d="M281.15,92.75a1.86,1.86,0,0,1,2.14.31l0,0a1.61,1.61,0,0,1,.8-1.6,1.81,1.81,0,0,1,2.47.95,1.62,1.62,0,0,1-2.35,2.2l0,0a1.81,1.81,0,0,1-.86,2,2,2,0,0,1-2.71-1A1.92,1.92,0,0,1,281.15,92.75Zm1.7,3.06c.7-.38.77-1,.57-1.93a1.4,1.4,0,0,0-1.74-.39,1.2,1.2,0,0,0-.47,1.73A1.18,1.18,0,0,0,282.85,95.81Zm1.7-3.68c-.57.31-.64.91-.46,1.67a1.28,1.28,0,0,0,1.51.3,1,1,0,0,0,.41-1.47A1,1,0,0,0,284.55,92.13Z" fill="#fff"/><rect x="250" y="97" width="28" height="13" transform="translate(188.4 -169.8) rotate(53.13)" fill="#034052"/><path d="M261.18,103.49a3.12,3.12,0,0,0,.45.55,2.39,2.39,0,0,0,1.32.71,2.83,2.83,0,0,0,1.9-.35l0,0a1.95,1.95,0,0,1-1-3.53,2.22,2.22,0,0,1,3.18.39c.8,1.06.43,2.36-.9,3.36a4.09,4.09,0,0,1-3.11.93,3.16,3.16,0,0,1-1.83-1,4.3,4.3,0,0,1-.53-.61Zm3.18-2a1.24,1.24,0,0,0-.35,1.82,1.43,1.43,0,0,0,1.31.62.55.55,0,0,0,.3-.13c.89-.66,1.32-1.5.77-2.24A1.4,1.4,0,0,0,264.36,101.51Z" fill="#fff"/><rect x="227" y="99" width="28" height="13" transform="translate(159.59 -144.67) rotate(48.33)" fill="#034052"/><path d="M240.72,101.56h0l-1.21-.44.39-.57,1.51.55.5.56L237.05,106l-.57-.63Z" fill="#fff"/><path d="M244,108.76c-1.65,1.47-3.1,1.67-4.06.6s-.53-2.39,1.07-3.83,3.14-1.54,4-.56S245.52,107.39,244,108.76Zm-2.42-2.56c-1.26,1.12-1.63,2.14-1.1,2.74s1.67.3,2.91-.81,1.7-2.06,1.1-2.74S242.87,105,241.55,106.2Z" fill="#fff"/><rect x="200" y="100" width="28" height="13" transform="translate(323.2 -106.14) rotate(90.72)" fill="#034052"/><path d="M216.41,103.4v0l-.59-1.14.67-.16.74,1.43v.75l-6.49-.08v-.85Z" fill="#fff"/><path d="M216.35,108.53v0l-.6-1.14.68-.16.74,1.43v.75l-6.5-.08v-.85Z" fill="#fff"/><rect x="177" y="90" width="28" height="13" transform="translate(207.94 -116.82) rotate(67.74)" fill="#034052"/><path d="M192.09,92.69v0l-1-.81.55-.41,1.24,1,.29.7-6,2.46-.32-.79Z" fill="#fff"/><path d="M188.05,97.82l.5-.2.88.38c2.09.94,3.15,1.31,4.06,1a1.15,1.15,0,0,0,.69-1.67,2.19,2.19,0,0,0-1-1.07l.47-.49a2.79,2.79,0,0,1,1.3,1.45,1.82,1.82,0,0,1-1,2.55c-1.11.46-2.34,0-4.08-.75l-.64-.3h0l1.11,2.7-.68.28Z" fill="#fff"/><rect x="154" y="85" width="28" height="13" transform="matrix(0.07, 1, -1, 0.07, 248.2, -82.18)" fill="#034052"/><path d="M170.25,88.24v0l-.68-1.09.66-.21.85,1.36,0,.75-6.48.43-.06-.85Z" fill="#fff"/><path d="M165.82,92a3,3,0,0,0-.31,1.46c.07,1.13.82,1.43,1.35,1.39.91-.07,1.25-.92,1.19-1.77l0-.48.66,0,0,.49c0,.64.42,1.43,1.19,1.37.52,0,1-.39.9-1.2a2.35,2.35,0,0,0-.51-1.27l.62-.27a3.06,3.06,0,0,1,.61,1.66c.09,1.28-.63,1.91-1.42,2a1.61,1.61,0,0,1-1.61-1.09h0a1.68,1.68,0,0,1-1.57,1.55c-1,.07-2-.68-2.1-2.23a3.23,3.23,0,0,1,.33-1.71Z" fill="#fff"/><rect x="132" y="89" width="28" height="13" transform="translate(221.68 -61.69) rotate(82.52)" fill="#034052"/><path d="M148,92.11h0l-.75-1,.64-.25.94,1.31.1.74-6.44.85-.11-.85Z" fill="#fff"/><path d="M143.18,98.74l1.75-.23-.39-3,.58-.08,4.49,2.34.12.94-4,.53.11.9-.68.09-.12-.9-1.75.22Zm2.44-.32,2.15-.28c.33,0,.67-.08,1-.1v0c-.4-.15-.7-.27-1-.41l-2.4-1.29h0Z" fill="#fff"/><rect x="109" y="90" width="28" height="13" transform="translate(221.17 -25.17) rotate(90.78)" fill="#034052"/><path d="M125.42,93.45v0l-.6-1.13.68-.17.73,1.43v.75l-6.49-.09v-.84Z" fill="#fff"/><path d="M125.4,100.55l0-2.48-1.66-.27a3.7,3.7,0,0,1,0,.53,2.76,2.76,0,0,1-.37,1.4,1.86,1.86,0,0,1-1.68.9,2.25,2.25,0,0,1-2.19-2.45,3.11,3.11,0,0,1,.43-1.61l.66.23a3,3,0,0,0-.38,1.38,1.44,1.44,0,0,0,1.39,1.56c.84,0,1.45-.55,1.47-1.85a7,7,0,0,0-.06-.9l3.11.46,0,3.11Z" fill="#fff"/><rect x="88" y="90" width="28" height="13" transform="translate(194.18 -9.42) rotate(87.62)" fill="#00a7d9"/><path d="M104.29,93.36v0l-.66-1.1.66-.2.82,1.39,0,.75-6.49.27,0-.85Z" fill="#fff"/><path d="M104.77,100.28a2.73,2.73,0,0,0-.06-.66,2.64,2.64,0,0,0-2.4-2.16v0a2,2,0,0,1-1.2,3.58A2.17,2.17,0,0,1,98.73,99c-.06-1.39,1-2.34,2.67-2.41a4,4,0,0,1,3,1,3.62,3.62,0,0,1,1,2,3.51,3.51,0,0,1,.07.64Zm-3.75-.1a1.31,1.31,0,0,0,1.43-1.4,1.43,1.43,0,0,0-.85-1.22.75.75,0,0,0-.39-.09c-1.07.07-1.84.59-1.8,1.51C99.44,99.74,100.09,100.22,101,100.18Z" fill="#fff"/><rect x="65" y="90" width="28" height="13" transform="translate(159.99 1.67) rotate(79.8)" fill="#034052"/><path d="M80.82,93v0L80,92l.63-.28,1,1.26.14.74-6.4,1.14L75.23,94Z" fill="#fff"/><path d="M82.94,100.19l-.57.1-6.32-1.73-.16-.9L82,99.42h0l-.56-3.13.72-.13Z" fill="#fff"/><rect x="40" y="93" width="28" height="13" transform="translate(104.44 -1.85) rotate(54.95)" fill="#034052"/><path d="M54.14,95.59h0L53,95l.45-.52,1.44.72.43.62L50,99.55l-.49-.7Z" fill="#fff"/><path d="M52.65,100.48a1.87,1.87,0,0,1,2.16,0l0,0a1.59,1.59,0,0,1,.6-1.68,1.82,1.82,0,0,1,2.57.65,1.68,1.68,0,0,1-.22,2.47,1.66,1.66,0,0,1-1.86,0l0,0a1.8,1.8,0,0,1-.63,2,2,2,0,0,1-2.81-.72A1.92,1.92,0,0,1,52.65,100.48Zm2,2.84c.64-.45.64-1.12.34-2a1.41,1.41,0,0,0-1.77-.18,1.2,1.2,0,0,0-.27,1.77A1.18,1.18,0,0,0,54.69,103.32ZM56,99.47c-.53.38-.54,1-.27,1.71a1.27,1.27,0,0,0,1.53.13,1,1,0,0,0,.24-1.51A1,1,0,0,0,56,99.47Z" fill="#fff"/><rect x="9" y="100" width="28" height="13" transform="translate(23.06 -2.46) rotate(12.22)" fill="#034052"/><path d="M20.41,103.49h0l-1.23.35,0-.69,1.55-.44.73.16L20,109.22l-.83-.18Z" fill="#fff"/><path d="M23,109.22a3.33,3.33,0,0,0,.7.12,2.48,2.48,0,0,0,1.46-.32,2.85,2.85,0,0,0,1.2-1.51h0a1.89,1.89,0,0,1-1.65.36,1.87,1.87,0,0,1-1.45-2.35,2.22,2.22,0,0,1,2.65-1.78c1.3.28,1.88,1.51,1.53,3.13a4.17,4.17,0,0,1-1.74,2.74,3.28,3.28,0,0,1-2,.45,4.69,4.69,0,0,1-.81-.12Zm1.1-3.58a1.25,1.25,0,0,0,.93,1.61,1.43,1.43,0,0,0,1.39-.39.57.57,0,0,0,.15-.3c.23-1.08,0-2-.89-2.19C24.94,104.21,24.29,104.74,24.09,105.64Z" fill="#fff"/><rect x="444.4" y="65.62" width="28" height="13" transform="translate(-0.14 0.88) rotate(-0.11)" fill="#034052"/><path d="M453.45,75.39v-.54l.69-.67c1.65-1.59,2.4-2.43,2.41-3.41a1.15,1.15,0,0,0-1.29-1.26,2.21,2.21,0,0,0-1.38.55l-.28-.62a2.85,2.85,0,0,1,1.84-.66,1.82,1.82,0,0,1,2,1.88c0,1.2-.87,2.17-2.23,3.5l-.52.48v0h2.92v.73Z" fill="#fff"/><path d="M462.89,72.05c0,2.21-.81,3.43-2.25,3.43-1.27,0-2.13-1.18-2.16-3.33s.94-3.38,2.26-3.38S462.89,70,462.89,72.05Zm-3.53.11c0,1.69.53,2.65,1.33,2.64s1.33-1,1.32-2.71-.41-2.64-1.32-2.64S459.36,70.39,459.36,72.16Z" fill="#fff"/><rect x="444.4" y="86.62" width="28" height="13" transform="matrix(1, 0, 0, 1, 0.25, -1.22)" fill="#034052"/><path d="M453.42,96.41v-.54l.69-.67c1.66-1.57,2.41-2.41,2.43-3.39a1.16,1.16,0,0,0-1.29-1.27,2.21,2.21,0,0,0-1.38.54l-.28-.62a2.85,2.85,0,0,1,1.84-.65,1.83,1.83,0,0,1,2,1.89c0,1.2-.88,2.17-2.25,3.49l-.52.47v0h2.92v.73Z" fill="#fff"/><path d="M460.47,90.75h0l-1.13.61-.17-.67,1.42-.76h.75l0,6.5h-.84Z" fill="#fff"/><rect x="444.4" y="107.62" width="28" height="13" transform="translate(-0.78 3.18) rotate(-0.4)" fill="#034052"/><path d="M453.48,117.44v-.54l.68-.68c1.65-1.59,2.39-2.43,2.4-3.41a1.16,1.16,0,0,0-1.3-1.26,2.21,2.21,0,0,0-1.38.55l-.28-.61a2.84,2.84,0,0,1,1.83-.68,1.83,1.83,0,0,1,2,1.88c0,1.2-.85,2.17-2.21,3.5l-.52.49v0l2.92,0v.73Z" fill="#fff"/><path d="M458.61,117.4v-.54l.68-.67c1.65-1.59,2.39-2.44,2.4-3.42a1.16,1.16,0,0,0-1.3-1.26,2.22,2.22,0,0,0-1.38.56l-.28-.62a2.83,2.83,0,0,1,1.83-.67,1.82,1.82,0,0,1,2,1.87c0,1.2-.85,2.18-2.21,3.51l-.52.48v0l2.92,0v.73Z" fill="#fff"/><path d="M414.92,185.6a3.47,3.47,0,0,1-1.31-1.51,5.46,5.46,0,0,1-.46-2.34,5.4,5.4,0,0,1,.46-2.34,3.5,3.5,0,0,1,1.31-1.5,3.81,3.81,0,0,1,2-.52,3.85,3.85,0,0,1,2.91,1.15l-.26.42a4.44,4.44,0,0,0-1.25-.83,3.66,3.66,0,0,0-1.41-.25,3,3,0,0,0-2.41,1,4.27,4.27,0,0,0-.85,2.85,4.32,4.32,0,0,0,.85,2.86,3,3,0,0,0,2.41,1,3.66,3.66,0,0,0,1.41-.25,4.24,4.24,0,0,0,1.25-.83l.26.42a3.85,3.85,0,0,1-2.91,1.15A3.81,3.81,0,0,1,414.92,185.6Z" fill="#555"/><path d="M426.36,180v6h-.5v-1.2a2,2,0,0,1-.81.95,2.5,2.5,0,0,1-1.31.33,2.65,2.65,0,0,1-1.41-.37,2.59,2.59,0,0,1-.93-1.08,3.84,3.84,0,0,1-.33-1.64,3.89,3.89,0,0,1,.33-1.65,2.6,2.6,0,0,1,1-1.09,2.75,2.75,0,0,1,2.7-.07,2,2,0,0,1,.81.95V180Zm-1.06,4.9a3,3,0,0,0,.56-1.94,3,3,0,0,0-.56-1.93,1.86,1.86,0,0,0-1.56-.68,1.92,1.92,0,0,0-1.57.69,3.08,3.08,0,0,0-.56,2,2.93,2.93,0,0,0,.57,1.92,2,2,0,0,0,1.58.68A1.85,1.85,0,0,0,425.3,184.93Z" fill="#555"/><path d="M431.36,179.92l0,.46a2.72,2.72,0,0,0-.48,0,1.82,1.82,0,0,0-1.08.31,1.67,1.67,0,0,0-.61.78,2.57,2.57,0,0,0-.2,1V186h-.49v-4.34a13.49,13.49,0,0,0-.09-1.66h.48l.08,1.13a1.89,1.89,0,0,1,.75-.95,2.1,2.1,0,0,1,1.17-.32A3.07,3.07,0,0,1,431.36,179.92Z" fill="#555"/><path d="M437.27,182.17V186h-.51v-3.82a2.09,2.09,0,0,0-.39-1.4,1.55,1.55,0,0,0-1.24-.44,2.08,2.08,0,0,0-1.55.58,2.16,2.16,0,0,0-.58,1.59V186h-.5v-4.34a13.49,13.49,0,0,0-.09-1.66h.48l.08,1.14a1.93,1.93,0,0,1,.82-1,2.6,2.6,0,0,1,1.29-.32Q437.27,179.89,437.27,182.17Z" fill="#555"/><path d="M440.21,185.73a2.51,2.51,0,0,1-.94-1.09,3.86,3.86,0,0,1-.33-1.65,3.76,3.76,0,0,1,.33-1.63,2.51,2.51,0,0,1,.94-1.09,2.77,2.77,0,0,1,2.8,0,2.58,2.58,0,0,1,.94,1.09,3.76,3.76,0,0,1,.33,1.63,3.86,3.86,0,0,1-.33,1.65,2.58,2.58,0,0,1-.94,1.09,2.77,2.77,0,0,1-2.8,0Zm3-.79a3,3,0,0,0,.56-1.95,3,3,0,0,0-.57-1.92,1.89,1.89,0,0,0-1.56-.69,1.92,1.92,0,0,0-1.56.69,2.93,2.93,0,0,0-.57,1.92,3,3,0,0,0,.55,1.95,1.89,1.89,0,0,0,1.57.68A1.94,1.94,0,0,0,443.18,184.94Z" fill="#555"/><path d="M450.6,180v6h-.48v-1.14a2.07,2.07,0,0,1-.83.9,2.35,2.35,0,0,1-1.23.32,2,2,0,0,1-1.58-.58,2.44,2.44,0,0,1-.54-1.71V180h.5v3.74a2.09,2.09,0,0,0,.39,1.4,1.48,1.48,0,0,0,1.19.45,2,2,0,0,0,1.52-.59,2.19,2.19,0,0,0,.57-1.58V180Z" fill="#555"/><path d="M452.35,185.3l.23-.42a3.07,3.07,0,0,0,.94.57,3.31,3.31,0,0,0,1.1.16,2.16,2.16,0,0,0,1.22-.28.93.93,0,0,0,.42-.83.9.9,0,0,0-.27-.68,1.94,1.94,0,0,0-.89-.42l-1-.24a2.1,2.1,0,0,1-1.1-.59,1.35,1.35,0,0,1-.42-1,1.52,1.52,0,0,1,.58-1.24,2.43,2.43,0,0,1,1.56-.46,3.13,3.13,0,0,1,1.17.21,2,2,0,0,1,.86.59l-.24.43a3.08,3.08,0,0,0-.84-.56,2.44,2.44,0,0,0-.95-.18,2,2,0,0,0-1.17.3,1,1,0,0,0-.41.84,1,1,0,0,0,.26.73,1.71,1.71,0,0,0,.82.41l1,.25a2.33,2.33,0,0,1,1.19.58,1.34,1.34,0,0,1,.4,1,1.44,1.44,0,0,1-.61,1.19,2.67,2.67,0,0,1-1.63.45A3,3,0,0,1,452.35,185.3Z" fill="#555"/><path d="M459.3,180.46v3.83a1.48,1.48,0,0,0,.28,1.05,1.14,1.14,0,0,0,.84.28,2.09,2.09,0,0,0,.67-.11V186a2.55,2.55,0,0,1-.72.1,1.61,1.61,0,0,1-1.15-.4,1.65,1.65,0,0,1-.42-1.24v-4h-1.2V180h1.2V178.4l.5-.22V180h1.82v.43Z" fill="#555"/><path d="M462.31,177.63h.78v.77h-.78Zm.13,8.4v-6h.5v6Z" fill="#555"/><path d="M465.22,182.9v.1a2.81,2.81,0,0,0,.59,1.94,2.12,2.12,0,0,0,1.7.68,3,3,0,0,0,1.05-.18,3.55,3.55,0,0,0,1-.6l.24.43a2.88,2.88,0,0,1-1,.62,3.63,3.63,0,0,1-1.26.22,2.72,2.72,0,0,1-2.1-.82,3.23,3.23,0,0,1-.78-2.29,3.72,3.72,0,0,1,.35-1.63,2.59,2.59,0,0,1,1-1.09,2.68,2.68,0,0,1,1.44-.39,2.28,2.28,0,0,1,1.81.75,3.12,3.12,0,0,1,.65,2.11v.15Zm.75-2a2.56,2.56,0,0,0-.72,1.52h4.13a2.37,2.37,0,0,0-.58-1.53,1.78,1.78,0,0,0-1.38-.54A2,2,0,0,0,466,180.89Z" fill="#555"/><path d="M476.09,185.6a3.43,3.43,0,0,1-1.32-1.51,5.61,5.61,0,0,1-.46-2.34,5.55,5.55,0,0,1,.46-2.34,3.46,3.46,0,0,1,1.32-1.5,3.79,3.79,0,0,1,2-.52,3.83,3.83,0,0,1,2.9,1.15l-.25.42a4.48,4.48,0,0,0-1.26-.83,3.66,3.66,0,0,0-1.41-.25,3,3,0,0,0-2.4,1,4.27,4.27,0,0,0-.86,2.85,4.32,4.32,0,0,0,.85,2.86,3,3,0,0,0,2.41,1,3.66,3.66,0,0,0,1.41-.25,4.27,4.27,0,0,0,1.26-.83l.25.42a3.83,3.83,0,0,1-2.9,1.15A3.79,3.79,0,0,1,476.09,185.6Z" fill="#555"/><path d="M483.5,185.73a2.58,2.58,0,0,1-.94-1.09,3.86,3.86,0,0,1-.33-1.65,3.76,3.76,0,0,1,.33-1.63,2.47,2.47,0,0,1,2.35-1.47,2.44,2.44,0,0,1,2.33,1.47,3.76,3.76,0,0,1,.33,1.63,3.86,3.86,0,0,1-.33,1.65,2.65,2.65,0,0,1-3.74,1.09Zm3-.79A3,3,0,0,0,487,183a3,3,0,0,0-.56-1.92,2.12,2.12,0,0,0-3.13,0,2.93,2.93,0,0,0-.57,1.92,3.06,3.06,0,0,0,.55,1.95,2.16,2.16,0,0,0,3.15,0Z" fill="#555"/><path d="M493.9,180v6h-.48v-1.14a2.09,2.09,0,0,1-.84.9,2.3,2.3,0,0,1-1.23.32,2,2,0,0,1-1.57-.58,2.44,2.44,0,0,1-.54-1.71V180h.49v3.74a2.09,2.09,0,0,0,.39,1.4,1.5,1.5,0,0,0,1.2.45,2,2,0,0,0,1.51-.59,2.19,2.19,0,0,0,.57-1.58V180Z" fill="#555"/><path d="M498.9,179.92l0,.46a2.57,2.57,0,0,0-.48,0,1.82,1.82,0,0,0-1.08.31,1.74,1.74,0,0,0-.61.78,2.57,2.57,0,0,0-.19,1V186H496v-4.34a11.65,11.65,0,0,0-.1-1.66h.48l.09,1.13a1.89,1.89,0,0,1,.75-.95,2.08,2.08,0,0,1,1.17-.32A3.07,3.07,0,0,1,498.9,179.92Z" fill="#555"/><path d="M501.19,180.46v3.83a1.54,1.54,0,0,0,.28,1.05,1.14,1.14,0,0,0,.84.28,2.09,2.09,0,0,0,.67-.11V186a2.55,2.55,0,0,1-.72.1,1.61,1.61,0,0,1-1.15-.4,1.65,1.65,0,0,1-.42-1.24v-4h-1.2V180h1.2V178.4l.5-.22V180H503v.43Z" fill="#555"/><path d="M575.16,174.5H552.84a3,3,0,0,0-3,3v22.32a3,3,0,0,0,3,3h22.32a3,3,0,0,0,3-3V177.54A3,3,0,0,0,575.16,174.5ZM565,192.76h-3v3a1,1,0,0,1-1,1h-2a1,1,0,0,1-1-1V181.6a1,1,0,0,1,1-1H565a6.09,6.09,0,1,1,0,12.17Zm0-8.12h-3v4.06h3a2,2,0,0,0,0-4.06Z" fill="#005d78"/><path d="M579.54,160.69h-1.46V127.26a1.76,1.76,0,0,0-1.76-1.76H551.68a1.76,1.76,0,0,0-1.76,1.76v33.43h-1.46a.88.88,0,0,0-.88.88V163h32.84v-1.47A.88.88,0,0,0,579.54,160.69ZM557,131.07a.89.89,0,0,1,.88-.88h2.93a.88.88,0,0,1,.88.88V134a.88.88,0,0,1-.88.88h-2.93A.89.89,0,0,1,557,134Zm0,7a.89.89,0,0,1,.88-.88h2.93a.88.88,0,0,1,.88.88V141a.87.87,0,0,1-.88.88h-2.93A.88.88,0,0,1,557,141ZM560.77,149h-2.93a.88.88,0,0,1-.88-.88v-2.93a.88.88,0,0,1,.88-.88h2.93a.87.87,0,0,1,.88.88v2.93A.87.87,0,0,1,560.77,149Zm5.58,11.73h-4.7v-6.15a.88.88,0,0,1,.88-.88h2.94a.88.88,0,0,1,.88.88ZM571,148.08a.88.88,0,0,1-.88.88h-2.93a.87.87,0,0,1-.88-.88v-2.93a.87.87,0,0,1,.88-.88h2.93a.88.88,0,0,1,.88.88Zm0-7a.88.88,0,0,1-.88.88h-2.93a.87.87,0,0,1-.88-.88v-2.93a.88.88,0,0,1,.88-.88h2.93a.89.89,0,0,1,.88.88Zm0-7a.89.89,0,0,1-.88.88h-2.93a.88.88,0,0,1-.88-.88v-2.94a.88.88,0,0,1,.88-.88h2.93a.89.89,0,0,1,.88.88Z" fill="#005d78"/><path d="M278.68,152.34l-1-2.36h-4.73l-1,2.36h-.54l3.67-8.54h.49l3.68,8.54Zm-5.55-2.84h4.32l-2.16-5Z" fill="#555"/><path d="M285.3,146.34v6h-.48V151.2a2.15,2.15,0,0,1-.83.91,2.44,2.44,0,0,1-1.23.31,2,2,0,0,1-1.58-.58,2.44,2.44,0,0,1-.54-1.71v-3.79h.5v3.74a2.09,2.09,0,0,0,.39,1.4,1.48,1.48,0,0,0,1.19.45,2,2,0,0,0,1.52-.59,2.19,2.19,0,0,0,.57-1.58v-3.42Z" fill="#555"/><path d="M292.34,146.34v6.08a2.77,2.77,0,0,1-.6,1.94,2.33,2.33,0,0,1-1.8.66,3.91,3.91,0,0,1-2.3-.68l.11-.48a5.13,5.13,0,0,0,1.08.51,3.84,3.84,0,0,0,1.14.15,1.8,1.8,0,0,0,1.4-.52,2.17,2.17,0,0,0,.48-1.52v-1.64a2,2,0,0,1-.81,1,2.5,2.5,0,0,1-1.34.34,2.65,2.65,0,0,1-1.4-.38,2.48,2.48,0,0,1-.95-1.05,3.41,3.41,0,0,1-.35-1.56,3.37,3.37,0,0,1,.35-1.55,2.48,2.48,0,0,1,.95-1.05,2.64,2.64,0,0,1,1.4-.37,2.51,2.51,0,0,1,1.32.32,2,2,0,0,1,.82.95v-1.13ZM291.27,151a3.19,3.19,0,0,0,0-3.64,2,2,0,0,0-1.57-.66,2,2,0,0,0-1.58.66,3.16,3.16,0,0,0,0,3.65,2.2,2.2,0,0,0,3.15,0Z" fill="#555"/><path d="M299.08,146.34v6h-.48V151.2a2.24,2.24,0,0,1-.84.91,2.39,2.39,0,0,1-1.23.31,2,2,0,0,1-1.57-.58,2.44,2.44,0,0,1-.54-1.71v-3.79h.49v3.74a2.09,2.09,0,0,0,.39,1.4,1.5,1.5,0,0,0,1.2.45,2,2,0,0,0,1.51-.59,2.19,2.19,0,0,0,.57-1.58v-3.42Z" fill="#555"/><path d="M300.83,151.61l.22-.42a2.82,2.82,0,0,0,2,.73,2.2,2.2,0,0,0,1.23-.28.93.93,0,0,0,.42-.82.88.88,0,0,0-.28-.69,2,2,0,0,0-.88-.42l-1-.24a2.14,2.14,0,0,1-1.1-.59,1.35,1.35,0,0,1-.42-1,1.52,1.52,0,0,1,.58-1.24,2.45,2.45,0,0,1,1.57-.46,3.2,3.2,0,0,1,1.17.21,2.07,2.07,0,0,1,.86.59l-.24.43a3.24,3.24,0,0,0-.84-.56,2.47,2.47,0,0,0-.95-.18,2,2,0,0,0-1.17.3,1,1,0,0,0-.42.84,1,1,0,0,0,.27.73,1.71,1.71,0,0,0,.81.41l1,.25a2.34,2.34,0,0,1,1.18.58,1.3,1.3,0,0,1,.4,1,1.42,1.42,0,0,1-.61,1.19,2.64,2.64,0,0,1-1.62.45A3,3,0,0,1,300.83,151.61Z" fill="#555"/><path d="M307.78,146.77v3.83a1.48,1.48,0,0,0,.28,1.05,1.11,1.11,0,0,0,.83.28,1.81,1.81,0,0,0,.67-.11v.5a3,3,0,0,1-.72.09,1.57,1.57,0,0,1-1.14-.4,1.61,1.61,0,0,1-.43-1.24v-4h-1.2v-.43h1.2v-1.63l.51-.22v1.85h1.82v.43Z" fill="#555"/><path d="M315.8,146.34v6h-.5v-1.2a2,2,0,0,1-.81,1,2.49,2.49,0,0,1-1.3.33,2.6,2.6,0,0,1-1.41-.37,2.54,2.54,0,0,1-.94-1.08,3.84,3.84,0,0,1-.33-1.64,3.74,3.74,0,0,1,.34-1.65,2.5,2.5,0,0,1,2.34-1.48,2.48,2.48,0,0,1,1.3.32,2,2,0,0,1,.81.95v-1.13Zm-1.05,4.9a3,3,0,0,0,.55-1.94,3,3,0,0,0-.55-1.93,1.88,1.88,0,0,0-1.56-.68,1.91,1.91,0,0,0-1.57.69,3,3,0,0,0-.57,2,2.93,2.93,0,0,0,.57,1.92,2,2,0,0,0,1.58.68A1.88,1.88,0,0,0,314.75,151.24Z" fill="#555"/><path d="M321,143.8h2.63a4.12,4.12,0,0,1,3.1,1.1,5.13,5.13,0,0,1,0,6.32,4.12,4.12,0,0,1-3.1,1.12H321Zm2.62,8.08a3.6,3.6,0,0,0,2.73-1,4,4,0,0,0,.92-2.86,4,4,0,0,0-.92-2.85,3.6,3.6,0,0,0-2.73-1h-2.12v7.63Z" fill="#555"/><path d="M332.6,146.23l0,.46a2.72,2.72,0,0,0-.48,0A1.82,1.82,0,0,0,331,147a1.67,1.67,0,0,0-.61.78,2.61,2.61,0,0,0-.2,1v3.6h-.49V148a13.49,13.49,0,0,0-.09-1.66h.48l.08,1.13a1.89,1.89,0,0,1,.75-.95,2.1,2.1,0,0,1,1.17-.32A3.07,3.07,0,0,1,332.6,146.23Z" fill="#555"/><path d="M333.61,143.94h.78v.77h-.78Zm.13,8.4v-6h.49v6Z" fill="#555"/><path d="M340.75,146.34h.52l-2.56,6h-.59l-2.53-6h.54l2.3,5.54Z" fill="#555"/><path d="M342.71,149.21v.11a2.8,2.8,0,0,0,.59,1.93,2.12,2.12,0,0,0,1.7.68,3,3,0,0,0,1.05-.18,3.55,3.55,0,0,0,1-.6l.24.43a2.88,2.88,0,0,1-1,.62,3.63,3.63,0,0,1-1.26.22,2.72,2.72,0,0,1-2.1-.82,3.22,3.22,0,0,1-.78-2.28,3.73,3.73,0,0,1,.35-1.64,2.59,2.59,0,0,1,1-1.09,2.68,2.68,0,0,1,1.44-.39,2.28,2.28,0,0,1,1.81.75,3.12,3.12,0,0,1,.65,2.11v.15Zm.75-2a2.56,2.56,0,0,0-.72,1.52h4.13a2.37,2.37,0,0,0-.58-1.53,1.78,1.78,0,0,0-1.38-.54A2,2,0,0,0,343.46,147.2Z" fill="#555"/><path d="M588.22,184.72h2.63a2.47,2.47,0,0,1,1.65.51,1.75,1.75,0,0,1,.6,1.41,1.79,1.79,0,0,1-.6,1.42,2.45,2.45,0,0,1-1.65.52h-2.22v3.26h-.41Zm2.62,3.45a2,2,0,0,0,1.35-.4,1.62,1.62,0,0,0,0-2.26,2,2,0,0,0-1.35-.4h-2.21v3.06Z" fill="#555"/><path d="M598.43,186.84v5H598v-1a1.64,1.64,0,0,1-.67.79,2,2,0,0,1-1.09.28,2.14,2.14,0,0,1-1.17-.32,2.05,2.05,0,0,1-.78-.89,3.49,3.49,0,0,1,0-2.74,2.22,2.22,0,0,1,.79-.92,2.3,2.3,0,0,1,2.25,0,1.64,1.64,0,0,1,.67.79v-.94Zm-.88,4.08a2.49,2.49,0,0,0,.46-1.61,2.45,2.45,0,0,0-.46-1.61,1.77,1.77,0,0,0-2.61,0,2.54,2.54,0,0,0-.47,1.62,2.41,2.41,0,0,0,.48,1.6,1.6,1.6,0,0,0,1.31.57A1.55,1.55,0,0,0,597.55,190.92Z" fill="#555"/><path d="M602.6,186.75l0,.38-.4,0a1.48,1.48,0,0,0-.9.26,1.52,1.52,0,0,0-.51.64,2.15,2.15,0,0,0-.16.83v3h-.41v-3.62a11.17,11.17,0,0,0-.08-1.38h.4l.07.94a1.52,1.52,0,0,1,.63-.79,1.75,1.75,0,0,1,1-.27A2.12,2.12,0,0,1,602.6,186.75Z" fill="#555"/><path d="M607.5,191.84h-.62L604,189.36v2.48h-.41v-7.36H604v4.71l2.64-2.35h.59l-2.73,2.4Z" fill="#555"/><path d="M608.26,184.84h.65v.64h-.65Zm.11,7v-5h.41v5Z" fill="#555"/><path d="M614.52,188.62v3.22h-.42v-3.18a1.8,1.8,0,0,0-.32-1.17,1.32,1.32,0,0,0-1-.37,1.71,1.71,0,0,0-1.29.49,1.78,1.78,0,0,0-.49,1.32v2.91h-.41v-3.62a11.17,11.17,0,0,0-.08-1.38h.4l.07.95a1.56,1.56,0,0,1,.68-.79,2,2,0,0,1,1.08-.28C613.91,186.72,614.52,187.35,614.52,188.62Z" fill="#555"/><path d="M620.36,186.84v5.07a2.32,2.32,0,0,1-.5,1.61,1.93,1.93,0,0,1-1.5.55,3.27,3.27,0,0,1-1.92-.56l.09-.4a4.51,4.51,0,0,0,.9.43,3.33,3.33,0,0,0,1,.12,1.52,1.52,0,0,0,1.17-.44A1.78,1.78,0,0,0,620,192v-1.37a1.68,1.68,0,0,1-.68.82,2.08,2.08,0,0,1-1.11.28,2.27,2.27,0,0,1-1.17-.31,2.11,2.11,0,0,1-.79-.88,2.74,2.74,0,0,1-.29-1.3,2.67,2.67,0,0,1,.29-1.29A2,2,0,0,1,617,187a2.18,2.18,0,0,1,1.17-.31,2.07,2.07,0,0,1,1.09.27,1.62,1.62,0,0,1,.69.79v-.94Zm-.9,3.87a2.63,2.63,0,0,0,0-3,1.61,1.61,0,0,0-1.3-.55,1.65,1.65,0,0,0-1.32.55,2.65,2.65,0,0,0,0,3,1.65,1.65,0,0,0,1.32.55A1.62,1.62,0,0,0,619.46,190.71Z" fill="#555"/><path d="M48.72,203.34v-8.09H45.58v-.45h6.79v.45H49.22v8.09Z" fill="#555"/><path d="M58.34,199.48v3.86h-.51v-3.82a2.09,2.09,0,0,0-.39-1.4,1.55,1.55,0,0,0-1.24-.44,2.07,2.07,0,0,0-1.55.58,2.17,2.17,0,0,0-.59,1.59v3.49h-.49v-8.83h.49v3.91a1.91,1.91,0,0,1,.82-.91,2.52,2.52,0,0,1,1.27-.31Q58.34,197.2,58.34,199.48Z" fill="#555"/><path d="M60.57,200.21v.11a2.86,2.86,0,0,0,.59,1.93,2.12,2.12,0,0,0,1.7.68,3.06,3.06,0,0,0,1.06-.18,3.66,3.66,0,0,0,1-.6l.24.43a2.88,2.88,0,0,1-1,.62,3.59,3.59,0,0,1-1.26.22,2.73,2.73,0,0,1-2.1-.82,3.22,3.22,0,0,1-.78-2.28,3.73,3.73,0,0,1,.35-1.64,2.59,2.59,0,0,1,1-1.09,2.69,2.69,0,0,1,1.45-.39,2.26,2.26,0,0,1,1.8.75,3.12,3.12,0,0,1,.66,2.11v.15Zm.75-2a2.56,2.56,0,0,0-.72,1.52h4.13a2.43,2.43,0,0,0-.57-1.53,1.81,1.81,0,0,0-1.38-.54A2,2,0,0,0,61.32,198.2Z" fill="#555"/><path d="M70,194.8h2.63a4.13,4.13,0,0,1,3.1,1.1,4.3,4.3,0,0,1,1.09,3.16,4.36,4.36,0,0,1-1.09,3.16,4.12,4.12,0,0,1-3.1,1.12H70Zm2.62,8.08a3.6,3.6,0,0,0,2.73-1,4,4,0,0,0,.92-2.86,4,4,0,0,0-.92-2.85,3.6,3.6,0,0,0-2.73-1H70.5v7.63Z" fill="#555"/><path d="M79.56,203a2.58,2.58,0,0,1-.94-1.09,3.86,3.86,0,0,1-.33-1.65,3.76,3.76,0,0,1,.33-1.63A2.47,2.47,0,0,1,81,197.2a2.44,2.44,0,0,1,2.33,1.47,3.76,3.76,0,0,1,.33,1.63A3.86,3.86,0,0,1,83.3,202,2.65,2.65,0,0,1,79.56,203Zm3-.79a3,3,0,0,0,.56-1.95,3,3,0,0,0-.56-1.92,2.12,2.12,0,0,0-3.13,0,2.93,2.93,0,0,0-.57,1.92,3.06,3.06,0,0,0,.55,1.95,2.16,2.16,0,0,0,3.15,0Z" fill="#555"/><path d="M86.23,203a2.62,2.62,0,0,1-1-1.09,3.61,3.61,0,0,1-.34-1.62,3.73,3.73,0,0,1,.34-1.64,2.54,2.54,0,0,1,1-1.1,2.67,2.67,0,0,1,1.45-.39,3.12,3.12,0,0,1,1.14.21,2.61,2.61,0,0,1,.9.59l-.24.43a4.16,4.16,0,0,0-.91-.57,2.25,2.25,0,0,0-.89-.18,2,2,0,0,0-1.63.71,3,3,0,0,0-.59,2,2.8,2.8,0,0,0,.59,1.91,2,2,0,0,0,1.62.68,2.43,2.43,0,0,0,.89-.17,4.2,4.2,0,0,0,.92-.57l.24.42a3,3,0,0,1-.93.6,3.13,3.13,0,0,1-1.12.21A2.64,2.64,0,0,1,86.23,203Z" fill="#555"/><path d="M95.92,203.34h-.74l-3.51-3v3h-.49v-8.83h.49v5.65l3.17-2.82h.71l-3.28,2.88Z" fill="#555"/><path d="M100.83,203a2.51,2.51,0,0,1-.94-1.09,3.86,3.86,0,0,1-.33-1.65,3.76,3.76,0,0,1,.33-1.63,2.51,2.51,0,0,1,.94-1.09,2.77,2.77,0,0,1,2.8,0,2.58,2.58,0,0,1,.94,1.09,3.76,3.76,0,0,1,.33,1.63,3.86,3.86,0,0,1-.33,1.65,2.58,2.58,0,0,1-.94,1.09,2.77,2.77,0,0,1-2.8,0Zm3-.79a3,3,0,0,0,.56-1.95,3,3,0,0,0-.57-1.92,1.89,1.89,0,0,0-1.56-.69,1.92,1.92,0,0,0-1.56.69,2.93,2.93,0,0,0-.57,1.92,3,3,0,0,0,.55,1.95,1.89,1.89,0,0,0,1.57.68A1.94,1.94,0,0,0,103.8,202.25Z" fill="#555"/><path d="M107.63,195.23a1.52,1.52,0,0,0-.28,1v1.07H109v.43h-1.6v5.57h-.5v-5.57h-1.2v-.43h1.2v-1.22a1.71,1.71,0,0,1,.41-1.25,1.51,1.51,0,0,1,1.12-.41,2.45,2.45,0,0,1,.69.1v.49a2.06,2.06,0,0,0-.63-.1A1.1,1.1,0,0,0,107.63,195.23Z" fill="#555"/><path d="M115.57,203.34v-8.09h-3.14v-.45h6.79v.45h-3.15v8.09Z" fill="#555"/><path d="M125.19,199.48v3.86h-.51v-3.82a2.09,2.09,0,0,0-.39-1.4,1.55,1.55,0,0,0-1.24-.44,2.07,2.07,0,0,0-1.55.58,2.17,2.17,0,0,0-.59,1.59v3.49h-.49v-8.83h.49v3.91a1.91,1.91,0,0,1,.82-.91,2.52,2.52,0,0,1,1.27-.31Q125.19,197.2,125.19,199.48Z" fill="#555"/><path d="M127.42,200.21v.11a2.86,2.86,0,0,0,.59,1.93,2.12,2.12,0,0,0,1.7.68,3.06,3.06,0,0,0,1.06-.18,3.66,3.66,0,0,0,1-.6l.24.43a2.88,2.88,0,0,1-1,.62,3.59,3.59,0,0,1-1.26.22,2.75,2.75,0,0,1-2.1-.82,3.22,3.22,0,0,1-.78-2.28,3.73,3.73,0,0,1,.35-1.64,2.59,2.59,0,0,1,1-1.09,2.69,2.69,0,0,1,1.45-.39,2.25,2.25,0,0,1,1.8.75,3.12,3.12,0,0,1,.66,2.11v.15Zm.75-2a2.56,2.56,0,0,0-.72,1.52h4.13a2.43,2.43,0,0,0-.57-1.53,1.81,1.81,0,0,0-1.38-.54A2,2,0,0,0,128.17,198.2Z" fill="#555"/><path d="M142.5,199.69a2.42,2.42,0,0,1-.3,3.06,3.17,3.17,0,0,1-2,.59h-3.29V194.8H140a3.11,3.11,0,0,1,2,.57,2.07,2.07,0,0,1,.7,1.67,2,2,0,0,1-.36,1.19,2,2,0,0,1-1,.73A2,2,0,0,1,142.5,199.69Zm-5.13-.93H140a2.58,2.58,0,0,0,1.65-.46,1.6,1.6,0,0,0,.57-1.33q0-1.71-2.22-1.71h-2.59Zm4.45,3.67a1.61,1.61,0,0,0,.55-1.35c0-1.22-.74-1.83-2.23-1.83h-2.77v3.62h2.77A2.6,2.6,0,0,0,141.82,202.43Z" fill="#555"/><path d="M149.7,197.34v6h-.5v-1.2a2,2,0,0,1-.81,1,2.49,2.49,0,0,1-1.3.33,2.6,2.6,0,0,1-1.41-.37,2.54,2.54,0,0,1-.94-1.08,3.84,3.84,0,0,1-.33-1.64,3.74,3.74,0,0,1,.34-1.65,2.5,2.5,0,0,1,2.34-1.48,2.48,2.48,0,0,1,1.3.32,2,2,0,0,1,.81.95v-1.13Zm-1,4.9a3,3,0,0,0,.55-1.94,3,3,0,0,0-.55-1.93,1.88,1.88,0,0,0-1.56-.68,1.91,1.91,0,0,0-1.57.69,3,3,0,0,0-.57,2,2.93,2.93,0,0,0,.57,1.92,2,2,0,0,0,1.58.68A1.88,1.88,0,0,0,148.65,202.24Z" fill="#555"/><path d="M156.72,197.34,153.89,204a3.33,3.33,0,0,1-1,1.41,3.8,3.8,0,0,1-1.5.63l-.09-.4a3.92,3.92,0,0,0,1.32-.54,2.49,2.49,0,0,0,.75-1.07l.25-.64-2.56-6.07h.54l2.3,5.54,2.32-5.54Z" fill="#555"/><path d="M58.13,217.28H60v.46H55.71v-.46h1.91v-7.35l-1.77,1.19v-.58l1.77-1.19v-.08l.05,0,.18-.12h.28Z" fill="#555"/><path d="M66.44,212.82a2.32,2.32,0,0,1,1,.94,2.9,2.9,0,0,1,.34,1.4,2.71,2.71,0,0,1-.35,1.37,2.41,2.41,0,0,1-.94,1,2.94,2.94,0,0,1-3.66-.72,5,5,0,0,1-.8-3,6,6,0,0,1,.82-3.42,2.63,2.63,0,0,1,2.31-1.21,3.53,3.53,0,0,1,1.39.29,4,4,0,0,1,1.21.84l-.25.42a4.62,4.62,0,0,0-1.18-.81,2.85,2.85,0,0,0-1.18-.26,2.16,2.16,0,0,0-1.92,1.1,5.78,5.78,0,0,0-.69,3.06v.45a2.46,2.46,0,0,1,1-1.25,2.82,2.82,0,0,1,1.58-.46A2.94,2.94,0,0,1,66.44,212.82Zm.17,3.93a2.21,2.21,0,0,0,.59-1.6,2.15,2.15,0,0,0-.6-1.59A2.11,2.11,0,0,0,65,213a2.46,2.46,0,0,0-1.16.28,2,2,0,0,0-.79.77,2.27,2.27,0,0,0-.28,1.14,2.1,2.1,0,0,0,.62,1.59,2.23,2.23,0,0,0,1.63.62A2.08,2.08,0,0,0,66.61,216.75Z" fill="#555"/><path d="M79.11,217.74l-1-2.36H73.37l-1,2.36h-.54l3.67-8.54H76l3.67,8.54Zm-5.54-2.84h4.32l-2.16-5Z" fill="#555"/><path d="M85.74,211.74v6h-.48V216.6a2.11,2.11,0,0,1-.84.91,2.39,2.39,0,0,1-1.23.31,2,2,0,0,1-1.57-.58,2.44,2.44,0,0,1-.54-1.71v-3.79h.49v3.74a2.09,2.09,0,0,0,.39,1.4,1.5,1.5,0,0,0,1.2.45,2,2,0,0,0,1.52-.59,2.19,2.19,0,0,0,.57-1.58v-3.42Z" fill="#555"/><path d="M92.78,211.74v6.08a2.77,2.77,0,0,1-.6,1.94,2.34,2.34,0,0,1-1.8.66,3.91,3.91,0,0,1-2.3-.68l.11-.48a5.13,5.13,0,0,0,1.08.51,3.84,3.84,0,0,0,1.14.15,1.8,1.8,0,0,0,1.4-.52,2.17,2.17,0,0,0,.48-1.52v-1.64a2,2,0,0,1-.82,1,2.46,2.46,0,0,1-1.33.34,2.62,2.62,0,0,1-1.4-.38,2.57,2.57,0,0,1-1-1.05,3.54,3.54,0,0,1-.34-1.56,3.5,3.5,0,0,1,.34-1.55,2.57,2.57,0,0,1,1-1.05,2.62,2.62,0,0,1,1.4-.37,2.53,2.53,0,0,1,1.32.32,2.07,2.07,0,0,1,.82,1v-1.13Zm-1.07,4.65a3.19,3.19,0,0,0,0-3.64,2,2,0,0,0-1.57-.66,2,2,0,0,0-1.58.66,3.16,3.16,0,0,0,0,3.65,2.2,2.2,0,0,0,3.15,0Z" fill="#555"/><path d="M99.51,211.74v6H99V216.6a2.15,2.15,0,0,1-.83.91,2.39,2.39,0,0,1-1.23.31,2,2,0,0,1-1.57-.58,2.44,2.44,0,0,1-.54-1.71v-3.79h.49v3.74a2.09,2.09,0,0,0,.39,1.4,1.5,1.5,0,0,0,1.19.45,2,2,0,0,0,1.52-.59,2.19,2.19,0,0,0,.57-1.58v-3.42Z" fill="#555"/><path d="M101.27,217l.22-.42a3.11,3.11,0,0,0,1,.57,3.21,3.21,0,0,0,1.09.16,2.2,2.2,0,0,0,1.23-.28.93.93,0,0,0,.42-.82.88.88,0,0,0-.28-.69,2,2,0,0,0-.89-.42l-1-.24a2.14,2.14,0,0,1-1.1-.59,1.35,1.35,0,0,1-.42-1,1.52,1.52,0,0,1,.58-1.24,2.45,2.45,0,0,1,1.57-.46,3.2,3.2,0,0,1,1.17.21,2.13,2.13,0,0,1,.86.59l-.24.43a3.41,3.41,0,0,0-.84-.56,2.47,2.47,0,0,0-.95-.18,1.94,1.94,0,0,0-1.17.3,1,1,0,0,0-.42.84,1,1,0,0,0,.27.73,1.67,1.67,0,0,0,.81.41l1,.25a2.34,2.34,0,0,1,1.18.58,1.3,1.3,0,0,1,.4,1,1.42,1.42,0,0,1-.61,1.19,2.64,2.64,0,0,1-1.62.45A3,3,0,0,1,101.27,217Z" fill="#555"/><path d="M108.21,212.17V216a1.48,1.48,0,0,0,.29,1.05,1.1,1.1,0,0,0,.83.28,1.85,1.85,0,0,0,.67-.11v.5a3,3,0,0,1-.72.09,1.57,1.57,0,0,1-1.14-.4,1.61,1.61,0,0,1-.43-1.24v-4h-1.2v-.43h1.2v-1.63l.5-.22v1.85H110v.43Z" fill="#555"/><path d="M116.24,211.74v6h-.5v-1.2a2,2,0,0,1-.81,1,2.49,2.49,0,0,1-1.3.33,2.6,2.6,0,0,1-1.41-.37,2.54,2.54,0,0,1-.94-1.08,3.84,3.84,0,0,1-.33-1.64,3.74,3.74,0,0,1,.34-1.65,2.5,2.5,0,0,1,2.34-1.48,2.48,2.48,0,0,1,1.3.32,2,2,0,0,1,.81,1v-1.13Zm-1,4.9a3.07,3.07,0,0,0,.55-1.94,3,3,0,0,0-.55-1.93,1.88,1.88,0,0,0-1.56-.68,1.93,1.93,0,0,0-1.58.69,3.08,3.08,0,0,0-.56,1.95,2.93,2.93,0,0,0,.57,1.92,2,2,0,0,0,1.58.68A1.88,1.88,0,0,0,115.19,216.64Z" fill="#555"/><path d="M121.46,209.2h2.63a4.13,4.13,0,0,1,3.1,1.1,4.3,4.3,0,0,1,1.09,3.16,4.36,4.36,0,0,1-1.09,3.16,4.12,4.12,0,0,1-3.1,1.12h-2.63Zm2.62,8.08a3.6,3.6,0,0,0,2.73-1,4,4,0,0,0,.92-2.86,4,4,0,0,0-.92-2.85,3.6,3.6,0,0,0-2.73-1H122v7.63Z" fill="#555"/><path d="M133,211.63l0,.46a2.77,2.77,0,0,0-.49,0,1.86,1.86,0,0,0-1.08.31,1.81,1.81,0,0,0-.61.78,2.81,2.81,0,0,0-.19,1v3.6h-.49V213.4a11.65,11.65,0,0,0-.1-1.66h.48l.09,1.13a1.89,1.89,0,0,1,.75-1,2.1,2.1,0,0,1,1.17-.32A3.07,3.07,0,0,1,133,211.63Z" fill="#555"/><path d="M134.05,209.34h.78v.77h-.78Zm.13,8.4v-6h.49v6Z" fill="#555"/><path d="M141.19,211.74h.51l-2.55,6h-.59l-2.53-6h.54l2.3,5.54Z" fill="#555"/><path d="M143.15,214.61v.11a2.8,2.8,0,0,0,.59,1.93,2.12,2.12,0,0,0,1.7.68,3,3,0,0,0,1.05-.18,3.55,3.55,0,0,0,1-.6l.24.43a2.88,2.88,0,0,1-1,.62,3.63,3.63,0,0,1-1.26.22,2.76,2.76,0,0,1-2.11-.82,3.26,3.26,0,0,1-.77-2.28,3.73,3.73,0,0,1,.35-1.64,2.59,2.59,0,0,1,1-1.09,2.68,2.68,0,0,1,1.44-.39,2.28,2.28,0,0,1,1.81.75,3.12,3.12,0,0,1,.65,2.11v.15Zm.75-2a2.56,2.56,0,0,0-.72,1.52h4.13a2.37,2.37,0,0,0-.58-1.53,1.78,1.78,0,0,0-1.38-.54A2,2,0,0,0,143.9,212.6Z" fill="#555"/><path d="M448.49,7.24H449l-3,8.54h-.46l-2.69-7.71-2.7,7.71h-.46l-3-8.54h.5L440,15.06l2.7-7.82h.44l2.69,7.8Z" fill="#555"/><path d="M450.06,12.65v.11a2.85,2.85,0,0,0,.6,1.94,2.13,2.13,0,0,0,1.7.67,3,3,0,0,0,1.05-.18,3.28,3.28,0,0,0,1-.6l.24.44a2.69,2.69,0,0,1-1,.61,3.55,3.55,0,0,1-1.25.23,2.76,2.76,0,0,1-2.11-.83,3.23,3.23,0,0,1-.77-2.28,3.66,3.66,0,0,1,.35-1.63,2.56,2.56,0,0,1,1-1.1,2.68,2.68,0,0,1,1.44-.39,2.28,2.28,0,0,1,1.81.75,3.18,3.18,0,0,1,.65,2.12v.14Zm.75-2a2.55,2.55,0,0,0-.71,1.52h4.13a2.37,2.37,0,0,0-.58-1.53,1.78,1.78,0,0,0-1.38-.54A2,2,0,0,0,450.81,10.64Z" fill="#555"/><path d="M461.16,11.92v3.86h-.5V12a2.12,2.12,0,0,0-.39-1.41,1.58,1.58,0,0,0-1.24-.44,2.07,2.07,0,0,0-1.56.59,2.18,2.18,0,0,0-.58,1.58v3.49h-.49V11.44a11.65,11.65,0,0,0-.1-1.66h.48l.09,1.14a1.94,1.94,0,0,1,.81-.95,2.54,2.54,0,0,1,1.3-.33C460.44,9.64,461.16,10.4,461.16,11.92Z" fill="#555"/><path d="M464,10.21V14a1.48,1.48,0,0,0,.29,1.05,1.1,1.1,0,0,0,.83.28,2.09,2.09,0,0,0,.67-.1v.49a3,3,0,0,1-.72.09,1.57,1.57,0,0,1-1.14-.4,1.61,1.61,0,0,1-.43-1.24v-4h-1.2V9.78h1.2V8.15l.5-.22V9.78h1.83v.43Z" fill="#555"/><path d="M475.38,9.78h.53l-2.12,6h-.6l-1.92-5.39-1.94,5.39h-.61l-2.1-6h.55L469,15.19l2-5.41h.62l1.9,5.4Z" fill="#555"/><path d="M478.28,15.48a2.47,2.47,0,0,1-.95-1.09,3.84,3.84,0,0,1-.33-1.64,3.81,3.81,0,0,1,.33-1.64,2.53,2.53,0,0,1,.95-1.09,2.77,2.77,0,0,1,2.8,0,2.55,2.55,0,0,1,.93,1.09,3.81,3.81,0,0,1,.33,1.64,3.84,3.84,0,0,1-.33,1.64,2.5,2.5,0,0,1-.93,1.09,2.71,2.71,0,0,1-2.8,0Zm3-.79a3,3,0,0,0,.55-1.94,2.93,2.93,0,0,0-.56-1.92,1.89,1.89,0,0,0-1.56-.7,1.94,1.94,0,0,0-1.57.69,2.94,2.94,0,0,0-.57,1.93,3,3,0,0,0,.56,1.95,1.9,1.9,0,0,0,1.57.67A1.92,1.92,0,0,0,481.25,14.69Z" fill="#555"/><path d="M486.94,9.67l0,.46a2.85,2.85,0,0,0-.48,0,1.81,1.81,0,0,0-1.08.3,1.85,1.85,0,0,0-.61.78,2.6,2.6,0,0,0-.19,1v3.6h-.49V11.44a11.65,11.65,0,0,0-.1-1.66h.48l.09,1.13a1.79,1.79,0,0,1,.75-.95,2.18,2.18,0,0,1,1.17-.32A3.07,3.07,0,0,1,486.94,9.67Z" fill="#555"/><path d="M489.23,10.21V14a1.48,1.48,0,0,0,.28,1.05,1.14,1.14,0,0,0,.84.28,2.09,2.09,0,0,0,.67-.1v.49a3,3,0,0,1-.72.09,1.61,1.61,0,0,1-1.15-.4,1.65,1.65,0,0,1-.42-1.24v-4h-1.2V9.78h1.2V8.15l.5-.22V9.78h1.82v.43Z" fill="#555"/><path d="M497.14,11.92v3.86h-.5V12a2.18,2.18,0,0,0-.39-1.41,1.61,1.61,0,0,0-1.25-.44,2.06,2.06,0,0,0-1.55.59,2.14,2.14,0,0,0-.58,1.58v3.49h-.49V7h.49v3.91a1.89,1.89,0,0,1,.81-.91A2.55,2.55,0,0,1,495,9.64C496.41,9.64,497.14,10.4,497.14,11.92Z" fill="#555"/><path d="M502.32,7.24H505a4.17,4.17,0,0,1,3.1,1.1,4.3,4.3,0,0,1,1.09,3.16,4.34,4.34,0,0,1-1.09,3.17,4.15,4.15,0,0,1-3.1,1.11h-2.63Zm2.62,8.09a3.6,3.6,0,0,0,2.73-1,4,4,0,0,0,.92-2.86,4,4,0,0,0-.92-2.85,3.6,3.6,0,0,0-2.73-1h-2.12v7.64Z" fill="#555"/><path d="M513.9,9.67l0,.46a3,3,0,0,0-.48,0,1.81,1.81,0,0,0-1.08.3,1.78,1.78,0,0,0-.61.78,2.61,2.61,0,0,0-.2,1v3.6H511V11.44a13.49,13.49,0,0,0-.09-1.66h.48l.08,1.13a1.89,1.89,0,0,1,.75-.95,2.18,2.18,0,0,1,1.17-.32A3.07,3.07,0,0,1,513.9,9.67Z" fill="#555"/><path d="M514.91,7.38h.78v.77h-.78Zm.13,8.4v-6h.49v6Z" fill="#555"/><path d="M522.05,9.78h.52l-2.56,6h-.59l-2.53-6h.54l2.3,5.55Z" fill="#555"/><path d="M524,12.65v.11a2.85,2.85,0,0,0,.59,1.94,2.14,2.14,0,0,0,1.7.67,3,3,0,0,0,1.05-.18,3.32,3.32,0,0,0,1-.6l.24.44a2.87,2.87,0,0,1-1,.61,3.65,3.65,0,0,1-1.26.23,2.73,2.73,0,0,1-2.1-.83,3.19,3.19,0,0,1-.78-2.28,3.66,3.66,0,0,1,.35-1.63,2.56,2.56,0,0,1,1-1.1,2.68,2.68,0,0,1,1.44-.39,2.28,2.28,0,0,1,1.81.75,3.13,3.13,0,0,1,.65,2.12v.14Zm.75-2a2.56,2.56,0,0,0-.72,1.52h4.13a2.37,2.37,0,0,0-.58-1.53,1.78,1.78,0,0,0-1.38-.54A2,2,0,0,0,524.76,10.64Z" fill="#555"/><path d="M557.24,75.6a3.64,3.64,0,0,1-1.35-.87l.25-.42a3.93,3.93,0,0,0,1.28.83,4.59,4.59,0,0,0,1.58.25,2.87,2.87,0,0,0,1.77-.49,1.62,1.62,0,0,0,.63-1.36,1.11,1.11,0,0,0-.32-.82,1.74,1.74,0,0,0-.77-.48,11.93,11.93,0,0,0-1.23-.35,14.68,14.68,0,0,1-1.59-.44,2.59,2.59,0,0,1-1-.67,1.76,1.76,0,0,1-.45-1.27,2.19,2.19,0,0,1,.36-1.25,2.3,2.3,0,0,1,1-.82,3.74,3.74,0,0,1,1.56-.3,3.8,3.8,0,0,1,2.87,1.15l-.25.42a4.3,4.3,0,0,0-1.24-.82,3.57,3.57,0,0,0-1.38-.26,2.88,2.88,0,0,0-1.79.5,1.66,1.66,0,0,0-.64,1.4,1.26,1.26,0,0,0,.56,1.14,4.81,4.81,0,0,0,1.56.62l.54.14a11.5,11.5,0,0,1,1.42.4,2.31,2.31,0,0,1,.92.62,1.61,1.61,0,0,1,.37,1.12,2.07,2.07,0,0,1-.36,1.2,2.31,2.31,0,0,1-1,.81,3.74,3.74,0,0,1-1.54.3A4.92,4.92,0,0,1,557.24,75.6Z" fill="#555"/><path d="M564.32,70.21V74a1.48,1.48,0,0,0,.29,1,1.1,1.1,0,0,0,.83.28,2.09,2.09,0,0,0,.67-.1v.49a3,3,0,0,1-.72.09,1.57,1.57,0,0,1-1.14-.4,1.61,1.61,0,0,1-.43-1.24v-4h-1.2v-.43h1.2V68.15l.5-.22v1.85h1.83v.43Z" fill="#555"/><path d="M577.12,75.78l-1-2.36h-4.72l-1,2.36h-.54l3.67-8.54H574l3.68,8.54Zm-5.55-2.84h4.32l-2.16-5Z" fill="#555"/><path d="M583.88,71.92v3.86h-.5V72a2.12,2.12,0,0,0-.39-1.41,1.58,1.58,0,0,0-1.24-.44,2.07,2.07,0,0,0-1.56.59,2.18,2.18,0,0,0-.58,1.58v3.49h-.49V71.44a11.65,11.65,0,0,0-.1-1.66h.48l.09,1.14a1.94,1.94,0,0,1,.81-1,2.54,2.54,0,0,1,1.3-.33C583.16,69.64,583.88,70.4,583.88,71.92Z" fill="#555"/><path d="M590.84,67v8.83h-.5v-1.2a2,2,0,0,1-.81,1,2.46,2.46,0,0,1-1.3.33,2.47,2.47,0,0,1-2.34-1.5,4.16,4.16,0,0,1,0-3.27,2.43,2.43,0,0,1,.94-1.08,2.52,2.52,0,0,1,1.41-.38,2.56,2.56,0,0,1,1.3.32,2,2,0,0,1,.81,1V67Zm-1.05,7.73a3.68,3.68,0,0,0,0-3.87,1.9,1.9,0,0,0-1.55-.68,2,2,0,0,0-1.58.68,2.88,2.88,0,0,0-.57,1.91,3,3,0,0,0,.57,2,2.11,2.11,0,0,0,3.13,0Z" fill="#555"/><path d="M595.85,69.67l0,.46a2.85,2.85,0,0,0-.48,0,1.81,1.81,0,0,0-1.08.3,1.85,1.85,0,0,0-.61.78,2.6,2.6,0,0,0-.19,1v3.6H593V71.44a13.33,13.33,0,0,0-.1-1.66h.48l.08,1.13a1.89,1.89,0,0,1,.75-1,2.18,2.18,0,0,1,1.17-.32A3.13,3.13,0,0,1,595.85,69.67Z" fill="#555"/><path d="M597,72.65v.11a2.85,2.85,0,0,0,.6,1.94,2.13,2.13,0,0,0,1.7.67,3,3,0,0,0,1-.18,3.28,3.28,0,0,0,1-.6l.24.44a2.69,2.69,0,0,1-1,.61,3.55,3.55,0,0,1-1.25.23,2.76,2.76,0,0,1-2.11-.83,3.23,3.23,0,0,1-.77-2.28,3.66,3.66,0,0,1,.35-1.63,2.56,2.56,0,0,1,1-1.1,2.68,2.68,0,0,1,1.44-.39,2.28,2.28,0,0,1,1.81.75,3.18,3.18,0,0,1,.65,2.12v.14Zm.75-2a2.55,2.55,0,0,0-.71,1.52h4.13a2.37,2.37,0,0,0-.58-1.53,1.78,1.78,0,0,0-1.38-.54A2,2,0,0,0,597.77,70.64Z" fill="#555"/><path d="M611.52,69.78h.53l-2.13,6h-.6l-1.92-5.39-1.93,5.39h-.61l-2.1-6h.55l1.84,5.41,2-5.41h.63l1.89,5.4Z" fill="#555"/><path d="M613.1,75.05l.23-.42a3.07,3.07,0,0,0,.94.57,3.31,3.31,0,0,0,1.1.16,2.2,2.2,0,0,0,1.23-.28.93.93,0,0,0,.42-.82.91.91,0,0,0-.28-.69,2.17,2.17,0,0,0-.89-.42l-1-.24a2.2,2.2,0,0,1-1.1-.58,1.39,1.39,0,0,1-.42-1,1.49,1.49,0,0,1,.58-1.23,2.39,2.39,0,0,1,1.57-.47,3.11,3.11,0,0,1,1.16.21,2.09,2.09,0,0,1,.86.59l-.24.43a3,3,0,0,0-.84-.55,2.23,2.23,0,0,0-.94-.19,1.94,1.94,0,0,0-1.17.3,1,1,0,0,0-.42.84,1,1,0,0,0,.26.73,1.62,1.62,0,0,0,.82.41l1,.25a2.33,2.33,0,0,1,1.19.58,1.3,1.3,0,0,1,.4,1,1.4,1.4,0,0,1-.61,1.19,2.67,2.67,0,0,1-1.63.46A3,3,0,0,1,613.1,75.05Z" fill="#555"/><path d="M537.89,219.9V202.39l.26-.26-.26-.27v-92l16.8-16.8,4,4.29,4.7-16.49-16.53,4.7,4.29,4-13.26,13.3V62.4c0-3.51-2.36-7.61-9-7.61l-43.5.11V33.7l5.86.2-8.36-15-8.37,15,5.87-.2V54.9H442.92c-5.53,0-8.53,4.43-8.53,7.5v62c0,4.79-1,5-4.5,5H193.39c-1,0-2.53-2.15-3.85-4-2.23-3.23-5-7.24-9.8-7.92-7.1-1-131.09-.07-136.37,0a2.5,2.5,0,1,0,0,5h0c35.83-.28,130-.82,135.63,0,2.62.38,4.54,3.15,6.39,5.83,2.11,3,4.29,6.2,8,6.2h236.5c6.66,0,9.5-3,9.5-10v-62a3.47,3.47,0,0,1,3.53-2.5l37.47-.11h5l43.5-.06c2.65,0,4,.88,4,2.61V107.9l-.26.26.26.26V196.9l-13.26-13.3,4.29-4-16.53-4.7,4.69,16.53,4-4.29,16.81,16.76v16h-49.5v26h105v-26Z" fill="#d8d8d8"/><path d="M89.38,172.74l12.24-7.52,12.23,7.52h-2.23l-10-5.53-10,5.53Zm12.24-4.55,8.17,4.51v7.52H108.3v-6.77h-5.94v6.77H100.9v-6.77h-6v6.77H93.45V172.7ZM93.45,181h16.34l1.48.75H92Zm-2.22,1.5H112l1.48.76H89.73ZM89,184h25.25l1.48.75H87.51Zm-1.49,0v-2.26H89v1.51Zm28.22,0-1.48-.75V181.8h1.48Zm-1.23-3a14,14,0,1,0-25.77,0h-1.1a15.5,15.5,0,0,1-1-5.56,15,15,0,1,1,30,0h0a15.08,15.08,0,0,1-1,5.56Z" fill="#00a7d9" fill-rule="evenodd"/><path d="M499.83,237.56v-10h6v.54h-5.4v4.09h5.12v.56h-5.12V237h5.4v.54Z" fill="#555"/><path d="M515.06,227.6h.55v10h-.48l-6.61-9v9H508v-10h.49l6.59,8.94Z" fill="#555"/><path d="M520.8,237.56v-9.43h-3.67v-.53h7.93v.53h-3.68v9.43Z" fill="#555"/><path d="M534.09,237.56h-.6l-1.22-3.31a1.79,1.79,0,0,0-.71-1,2.8,2.8,0,0,0-1.31-.24h-3.09v4.53h-.58v-10h3.71a3.65,3.65,0,0,1,2.38.69,2.44,2.44,0,0,1,.84,2,2.5,2.5,0,0,1-.51,1.61,2.66,2.66,0,0,1-1.45.9,1.4,1.4,0,0,1,.75.37,2.22,2.22,0,0,1,.5.88Zm-3.78-5.09a2.88,2.88,0,0,0,1.92-.56,2,2,0,0,0,.65-1.64c0-1.42-.85-2.13-2.57-2.13h-3.14v4.33Z" fill="#555"/><path d="M543.73,237.56l-1.19-2.75H537l-1.18,2.75h-.63l4.29-10h.57l4.28,10Zm-6.46-3.31h5l-2.52-5.88Z" fill="#555"/><path d="M553.28,227.6h.55v10h-.48l-6.61-9v9h-.54v-10h.49l6.59,8.94Z" fill="#555"/><path d="M558.21,237.07a4,4,0,0,1-1.53-1.77,7.17,7.17,0,0,1,0-5.46,4,4,0,0,1,1.53-1.75,4.91,4.91,0,0,1,5.75.74l-.29.49a5.21,5.21,0,0,0-1.46-1,4.46,4.46,0,0,0-1.65-.29,3.49,3.49,0,0,0-2.81,1.18,6.06,6.06,0,0,0,0,6.67,3.44,3.44,0,0,0,2.81,1.19,4.46,4.46,0,0,0,1.65-.29,5.21,5.21,0,0,0,1.46-1l.29.49a4.91,4.91,0,0,1-5.75.74Z" fill="#555"/><path d="M566.12,237.56v-10h6v.54h-5.4v4.09h5.12v.56h-5.12V237h5.4v.54Z" fill="#555"/></svg>